<svg xmlns="http://www.w3.org/2000/svg" width="1000" height="260" viewBox="0 0 1000 260">
  <rect width="100%" height="100%" fill="#0b0f14"/>
  <text x="34" y="22" fill="#f4f7fb" font-family="monospace" font-size="16">ear_connected</text>
  <polyline fill="none" stroke="#31d4ff" stroke-width="1.5" points="34.00,129.16 34.65,132.91 35.30,138.16 35.94,142.29 36.59,140.23 37.24,135.91 37.89,137.79 38.53,136.66 39.18,138.35 39.83,139.10 40.48,143.42 41.12,146.23 41.77,144.73 42.42,149.05 43.07,141.92 43.72,147.17 44.36,148.49 45.01,147.74 45.66,148.11 46.31,143.98 46.95,145.67 47.60,147.36 48.25,147.55 48.90,141.73 49.54,135.35 50.19,134.41 50.84,121.84 51.49,125.96 52.13,119.02 52.78,115.08 53.43,122.40 54.08,116.21 54.73,118.08 55.37,120.90 56.02,124.28 56.67,132.16 57.32,126.72 57.96,129.16 58.61,131.03 59.26,136.66 59.91,137.79 60.55,135.35 61.20,139.29 61.85,133.10 62.50,131.97 63.15,135.54 63.79,136.66 64.44,143.42 65.09,138.16 65.74,143.79 66.38,141.35 67.03,146.61 67.68,144.17 68.33,146.42 68.97,154.12 69.62,143.98 70.27,150.74 70.92,147.92 71.56,148.49 72.21,149.24 72.86,146.23 73.51,147.74 74.16,139.29 74.80,140.23 75.45,134.04 76.10,130.47 76.75,122.40 77.39,115.27 78.04,114.14 78.69,113.20 79.34,118.65 79.98,123.15 80.63,124.65 81.28,127.28 81.93,126.15 82.58,136.66 83.22,134.97 83.87,136.85 84.52,141.54 85.17,134.41 85.81,132.53 86.46,135.16 87.11,138.91 87.76,143.61 88.40,136.10 89.05,140.98 89.70,140.79 90.35,143.23 91.00,145.30 91.64,148.67 92.29,145.67 92.94,142.86 93.59,145.11 94.23,145.11 94.88,143.23 95.53,148.67 96.18,145.86 96.82,152.62 97.47,137.60 98.12,138.35 98.77,128.59 99.41,124.65 100.06,123.34 100.71,113.01 101.36,112.64 102.01,111.14 102.65,114.52 103.30,125.40 103.95,119.96 104.60,124.46 105.24,125.03 105.89,131.03 106.54,131.41 107.19,132.91 107.83,138.35 108.48,130.84 109.13,136.10 109.78,134.79 110.43,136.10 111.07,138.73 111.72,138.54 112.37,138.16 113.02,138.16 113.66,141.92 114.31,143.61 114.96,150.18 115.61,148.67 116.25,145.67 116.90,150.18 117.55,142.67 118.20,148.30 118.85,149.24 119.49,148.30 120.14,146.61 120.79,137.41 121.44,134.22 122.08,128.03 122.73,122.59 123.38,115.64 124.03,111.89 124.67,108.32 125.32,108.89 125.97,115.64 126.62,117.14 127.26,118.46 127.91,118.65 128.56,127.65 129.21,132.16 129.86,137.04 130.50,119.96 131.15,138.73 131.80,132.16 132.45,132.72 133.09,133.66 133.74,138.16 134.39,136.66 135.04,134.79 135.68,138.16 136.33,140.60 136.98,146.05 137.63,143.98 138.28,147.17 138.92,148.67 139.57,142.86 140.22,143.79 140.87,146.42 141.51,148.67 142.16,147.36 142.81,145.11 143.46,145.30 144.10,136.48 144.75,133.66 145.40,125.40 146.05,122.21 146.69,118.08 147.34,110.01 147.99,107.20 148.64,109.64 149.29,114.70 149.93,118.65 150.58,118.46 151.23,120.71 151.88,125.59 152.52,134.22 153.17,130.09 153.82,132.91 154.47,137.41 155.11,130.47 155.76,130.66 156.41,131.03 157.06,133.66 157.71,138.35 158.35,135.54 159.00,134.60 159.65,139.67 160.30,143.42 160.94,145.48 161.59,146.23 162.24,154.87 162.89,142.67 163.53,146.61 164.18,144.73 164.83,146.42 165.48,154.12 166.13,147.74 166.77,144.36 167.42,137.98 168.07,137.60 168.72,125.40 169.36,120.52 170.01,115.27 170.66,106.63 171.31,106.07 171.95,106.63 172.60,111.89 173.25,118.08 173.90,116.02 174.54,119.96 175.19,125.59 175.84,130.66 176.49,133.47 177.14,133.10 177.78,134.60 178.43,129.72 179.08,131.78 179.73,128.40 180.37,132.16 181.02,138.35 181.67,134.97 182.32,152.05 182.96,138.73 183.61,145.67 184.26,141.73 184.91,145.11 185.56,148.11 186.20,145.48 186.85,143.61 187.50,145.48 188.15,145.67 188.79,152.43 189.44,147.17 190.09,146.42 190.74,136.66 191.38,135.91 192.03,123.90 192.68,114.33 193.33,115.83 193.97,106.82 194.62,106.63 195.27,107.38 195.92,109.64 196.57,117.52 197.21,119.58 197.86,120.90 198.51,123.15 199.16,129.53 199.80,130.09 200.45,133.28 201.10,136.66 201.75,131.03 202.39,132.16 203.04,131.41 203.69,135.54 204.34,139.67 204.99,134.41 205.63,136.29 206.28,134.60 206.93,147.74 207.58,126.15 208.22,147.17 208.87,147.36 209.52,144.55 210.17,148.49 210.81,148.67 211.46,148.67 212.11,149.99 212.76,150.74 213.41,150.36 214.05,145.48 214.70,143.04 215.35,134.60 216.00,126.90 216.64,121.84 217.29,109.45 217.94,106.63 218.59,106.07 219.23,106.07 219.88,112.26 220.53,111.33 221.18,110.95 221.82,117.89 222.47,104.76 223.12,133.85 223.77,131.60 224.42,137.98 225.06,130.09 225.71,128.03 226.36,131.03 227.01,129.34 227.65,138.16 228.30,133.66 228.95,133.66 229.60,136.66 230.24,143.04 230.89,145.67 231.54,152.24 232.19,159.37 232.84,150.36 233.48,144.36 234.13,151.49 234.78,142.67 235.43,150.36 236.07,145.67 236.72,150.18 237.37,147.74 238.02,151.30 238.66,152.62 239.31,143.23 239.96,138.54 240.61,123.15 241.26,117.14 241.90,112.64 242.55,104.57 243.20,105.13 243.85,106.07 244.49,107.01 245.14,112.08 245.79,118.46 246.44,128.40 247.08,126.53 247.73,133.66 248.38,128.78 249.03,129.16 249.67,133.10 250.32,131.22 250.97,135.35 251.62,134.22 252.27,134.79 252.91,169.70 253.56,139.10 254.21,147.17 254.86,143.42 255.50,142.67 256.15,144.36 256.80,145.30 257.45,149.61 258.09,146.05 258.74,149.99 259.39,147.17 260.04,149.43 260.69,150.74 261.33,151.11 261.98,156.18 262.63,148.86 263.28,147.55 263.92,142.86 264.57,132.35 265.22,123.90 265.87,117.71 266.51,111.14 267.16,110.01 267.81,106.45 268.46,108.70 269.10,111.14 269.75,122.21 270.40,119.21 271.05,126.90 271.70,130.66 272.34,127.65 272.99,130.84 273.64,132.16 274.29,135.16 274.93,134.60 275.58,133.10 276.23,133.85 276.88,138.16 277.52,137.60 278.17,136.66 278.82,143.98 279.47,143.79 280.12,140.60 280.76,147.36 281.41,143.42 282.06,146.42 282.71,148.49 283.35,146.42 284.00,152.43 284.65,149.24 285.30,150.18 285.94,130.66 286.59,147.17 287.24,149.99 287.89,135.72 288.54,127.28 289.18,119.58 289.83,117.52 290.48,113.58 291.13,102.88 291.77,106.63 292.42,112.64 293.07,117.71 293.72,116.39 294.36,123.90 295.01,124.65 295.66,126.34 296.31,127.28 296.95,132.16 297.60,136.66 298.25,135.16 298.90,133.85 299.55,137.04 300.19,135.35 300.84,142.11 301.49,136.10 302.14,142.29 302.78,147.92 303.43,143.23 304.08,140.42 304.73,142.48 305.37,146.99 306.02,146.61 306.67,150.93 307.32,150.55 307.97,150.93 308.61,154.87 309.26,150.74 309.91,149.99 310.56,148.11 311.20,139.10 311.85,133.28 312.50,120.52 313.15,115.45 313.79,112.83 314.44,102.88 315.09,106.07 315.74,107.20 316.38,107.38 317.03,112.26 317.68,116.21 318.33,126.15 318.98,120.52 319.62,129.34 320.27,126.72 320.92,133.47 321.57,136.85 322.21,134.60 322.86,109.26 323.51,136.29 324.16,137.98 324.80,136.29 325.45,138.35 326.10,144.92 326.75,138.54 327.40,142.29 328.04,142.29 328.69,144.36 329.34,154.12 329.99,149.24 330.63,150.18 331.28,150.93 331.93,152.24 332.58,149.80 333.22,150.36 333.87,151.11 334.52,152.80 335.17,145.11 335.82,140.60 336.46,135.54 337.11,130.09 337.76,112.83 338.41,104.01 339.05,102.13 339.70,105.13 340.35,101.75 341.00,107.95 341.64,116.39 342.29,115.64 342.94,118.27 343.59,128.78 344.23,131.78 344.88,135.72 345.53,134.41 346.18,136.66 346.83,135.91 347.47,140.79 348.12,134.22 348.77,139.48 349.42,143.42 350.06,137.41 350.71,138.91 351.36,140.98 352.01,144.36 352.65,154.12 353.30,148.86 353.95,149.61 354.60,154.68 355.25,152.24 355.89,152.80 356.54,152.62 357.19,155.24 357.84,150.18 358.48,154.12 359.13,152.62 359.78,149.43 360.43,151.68 361.07,138.91 361.72,125.59 362.37,118.65 363.02,112.64 363.67,102.32 364.31,106.07 364.96,110.01 365.61,107.38 366.26,111.33 366.90,117.33 367.55,119.58 368.20,132.53 368.85,129.16 369.49,135.35 370.14,135.54 370.79,140.23 371.44,134.60 372.08,135.16 372.73,140.42 373.38,133.66 374.03,133.85 374.68,139.10 375.32,139.85 375.97,144.55 376.62,142.67 377.27,150.18 377.91,153.18 378.56,148.67 379.21,155.43 379.86,150.18 380.50,156.74 381.15,148.86 381.80,154.30 382.45,155.43 383.10,151.49 383.74,155.24 384.39,144.92 385.04,137.79 385.69,127.09 386.33,119.77 386.98,118.65 387.63,110.39 388.28,107.95 388.92,107.01 389.57,110.76 390.22,114.14 390.87,115.64 391.51,128.78 392.16,126.15 392.81,131.03 393.46,137.23 394.11,133.66 394.75,138.35 395.40,133.28 396.05,135.72 396.70,137.41 397.34,133.28 397.99,139.29 398.64,136.66 399.29,143.61 399.93,139.29 400.58,148.67 401.23,148.30 401.88,146.05 402.53,149.43 403.17,147.74 403.82,149.05 404.47,146.61 405.12,145.30 405.76,148.86 406.41,150.18 407.06,150.18 407.71,145.48 408.35,138.91 409.00,130.47 409.65,120.52 410.30,111.70 410.95,106.07 411.59,104.57 412.24,106.07 412.89,106.07 413.54,107.95 414.18,115.64 414.83,124.65 415.48,126.90 416.13,135.35 416.77,137.60 417.42,139.67 418.07,137.60 418.72,139.29 419.36,143.79 420.01,140.98 420.66,134.41 421.31,140.98 421.96,141.35 422.60,145.86 423.25,150.36 423.90,152.62 424.55,155.43 425.19,154.49 425.84,154.12 426.49,156.56 427.14,156.18 427.78,163.50 428.43,161.25 429.08,161.25 429.73,157.31 430.38,160.31 431.02,156.74 431.67,152.43 432.32,142.86 432.97,133.28 433.61,131.41 434.26,116.02 434.91,115.08 435.56,110.57 436.20,108.13 436.85,115.64 437.50,116.02 438.15,126.15 438.79,131.60 439.44,135.35 440.09,138.35 440.74,139.48 441.39,138.73 442.03,138.91 442.68,140.60 443.33,139.10 443.98,134.22 444.62,138.91 445.27,137.41 445.92,146.61 446.57,144.17 447.21,148.49 447.86,149.99 448.51,152.24 449.16,154.49 449.81,152.05 450.45,154.87 451.10,155.81 451.75,154.12 452.40,151.30 453.04,155.43 453.69,154.30 454.34,154.30 454.99,154.68 455.63,150.18 456.28,142.29 456.93,136.85 457.58,124.84 458.23,126.15 458.87,121.84 459.52,119.96 460.17,123.90 460.82,125.59 461.46,135.91 462.11,138.16 462.76,140.04 463.41,143.61 464.05,143.42 464.70,144.55 465.35,143.04 466.00,141.92 466.64,142.29 467.29,139.48 467.94,141.17 468.59,142.67 469.24,146.05 469.88,143.79 470.53,151.49 471.18,156.37 471.83,150.93 472.47,157.12 473.12,146.99 473.77,148.67 474.42,150.74 475.06,146.80 475.71,149.24 476.36,148.49 477.01,155.43 477.66,149.80 478.30,142.48 478.95,137.41 479.60,132.16 480.25,123.15 480.89,117.89 481.54,116.39 482.19,123.15 482.84,120.15 483.48,124.09 484.13,127.28 484.78,133.66 485.43,134.22 486.08,140.04 486.72,144.92 487.37,139.67 488.02,143.23 488.67,136.48 489.31,141.73 489.96,136.66 490.61,136.29 491.26,136.66 491.90,139.29 492.55,143.23 493.20,145.48 493.85,146.61 494.49,147.17 495.14,148.49 495.79,149.99 496.44,146.61 497.09,147.17 497.73,150.36 498.38,145.30 499.03,145.67 499.68,140.98 500.32,137.04 500.97,130.09 501.62,119.96 502.27,122.77 502.91,114.14 503.56,115.08 504.21,116.02 504.86,116.21 505.51,123.15 506.15,122.96 506.80,133.10 507.45,129.34 508.10,133.28 508.74,134.97 509.39,138.16 510.04,144.17 510.69,135.35 511.33,140.04 511.98,137.04 512.63,141.73 513.28,144.73 513.92,137.79 514.57,142.29 515.22,142.48 515.87,143.04 516.52,148.30 517.16,148.67 517.81,152.05 518.46,147.92 519.11,148.67 519.75,147.17 520.40,141.73 521.05,147.17 521.70,125.40 522.34,118.65 522.99,110.01 523.64,108.89 524.29,109.07 524.94,107.20 525.58,115.45 526.23,110.01 526.88,119.77 527.53,123.34 528.17,127.09 528.82,133.10 529.47,130.84 530.12,140.79 530.76,136.48 531.41,139.85 532.06,145.11 532.71,139.85 533.36,146.05 534.00,137.60 534.65,135.16 535.30,135.16 535.95,140.98 536.59,143.79 537.24,138.91 537.89,141.35 538.54,143.42 539.18,146.23 539.83,150.18 540.48,148.67 541.13,156.74 541.77,145.67 542.42,135.72 543.07,126.34 543.72,118.27 544.37,116.58 545.01,109.45 545.66,104.57 546.31,106.82 546.96,111.89 547.60,120.15 548.25,123.15 548.90,134.41 549.55,134.41 550.19,136.66 550.84,136.10 551.49,137.60 552.14,141.35 552.79,135.72 553.43,139.48 554.08,133.28 554.73,139.67 555.38,141.35 556.02,139.48 556.67,149.61 557.32,143.98 557.97,147.74 558.61,143.61 559.26,145.67 559.91,156.18 560.56,146.42 561.21,149.43 561.85,150.18 562.50,151.49 563.15,152.62 563.80,136.48 564.44,134.22 565.09,119.77 565.74,112.26 566.39,111.14 567.03,109.26 567.68,114.70 568.33,111.89 568.98,116.21 569.62,122.40 570.27,131.78 570.92,136.85 571.57,135.72 572.22,148.11 572.86,142.29 573.51,139.29 574.16,136.48 574.81,136.66 575.45,138.16 576.10,138.16 576.75,137.41 577.40,138.35 578.04,141.17 578.69,147.17 579.34,148.30 579.99,153.18 580.64,151.68 581.28,149.61 581.93,145.86 582.58,150.18 583.23,151.87 583.87,148.67 584.52,142.29 585.17,143.79 585.82,131.22 586.46,125.96 587.11,114.89 587.76,119.40 588.41,112.45 589.05,111.70 589.70,113.39 590.35,119.40 591.00,123.90 591.65,124.09 592.29,129.16 592.94,132.53 593.59,138.35 594.24,137.60 594.88,137.23 595.53,148.11 596.18,140.42 596.83,138.91 597.47,140.42 598.12,140.04 598.77,143.23 599.42,142.11 600.07,144.92 600.71,147.74 601.36,148.67 602.01,152.62 602.66,149.05 603.30,154.68 603.95,149.61 604.60,146.99 605.25,148.30 605.89,147.55 606.54,139.10 607.19,124.46 607.84,119.58 608.49,108.89 609.13,109.07 609.78,112.64 610.43,109.45 611.08,116.96 611.72,117.52 612.37,121.84 613.02,124.09 613.67,130.66 614.31,135.91 614.96,133.28 615.61,134.79 616.26,135.54 616.90,136.29 617.55,144.73 618.20,136.85 618.85,144.17 619.50,141.54 620.14,144.17 620.79,144.73 621.44,141.54 622.09,146.99 622.73,146.23 623.38,148.30 624.03,151.87 624.68,162.56 625.32,169.70 625.97,150.55 626.62,149.24 627.27,140.79 627.92,136.66 628.56,123.52 629.21,116.58 629.86,113.95 630.51,107.95 631.15,106.07 631.80,107.20 632.45,109.64 633.10,121.65 633.74,123.71 634.39,131.78 635.04,129.16 635.69,130.47 636.33,131.22 636.98,134.97 637.63,137.41 638.28,135.54 638.93,132.91 639.57,133.66 640.22,134.04 640.87,142.86 641.52,135.54 642.16,149.05 642.81,142.29 643.46,142.29 644.11,143.98 644.75,145.67 645.40,150.55 646.05,146.05 646.70,145.30 647.35,147.74 647.99,144.17 648.64,149.24 649.29,141.54 649.94,139.85 650.58,123.52 651.23,114.33 651.88,106.45 652.53,100.25 653.17,110.39 653.82,100.82 654.47,104.76 655.12,107.20 655.77,114.70 656.41,123.15 657.06,130.47 657.71,140.60 658.36,136.85 659.00,135.72 659.65,135.35 660.30,130.84 660.95,133.10 661.59,131.60 662.24,133.47 662.89,134.41 663.54,136.66 664.18,146.99 664.83,141.54 665.48,149.24 666.13,147.92 666.78,143.79 667.42,148.49 668.07,145.48 668.72,149.61 669.37,145.67 670.01,147.92 670.66,151.49 671.31,145.30 671.96,146.23 672.60,126.34 673.25,125.03 673.90,112.26 674.55,102.88 675.20,101.19 675.84,100.06 676.49,101.94 677.14,102.88 677.79,108.13 678.43,117.71 679.08,121.46 679.73,132.16 680.38,131.41 681.02,145.30 681.67,134.97 682.32,130.09 682.97,134.60 683.62,126.72 684.26,138.16 684.91,133.66 685.56,131.03 686.21,134.60 686.85,136.66 687.50,141.17 688.15,144.17 688.80,149.43 689.44,142.86 690.09,147.92 690.74,150.93 691.39,146.99 692.03,150.74 692.68,150.93 693.33,149.24 693.98,147.55 694.63,147.74 695.27,142.11 695.92,125.96 696.57,123.15 697.22,108.32 697.86,99.69 698.51,101.75 699.16,98.00 699.81,103.44 700.45,106.26 701.10,111.70 701.75,124.28 702.40,126.90 703.05,130.66 703.69,133.66 704.34,142.48 704.99,134.79 705.64,131.78 706.28,134.97 706.93,131.22 707.58,133.66 708.23,137.41 708.87,137.04 709.52,135.35 710.17,141.54 710.82,143.98 711.46,145.67 712.11,151.30 712.76,154.12 713.41,150.18 714.06,149.80 714.70,149.43 715.35,150.18 716.00,150.74 716.65,146.99 717.29,150.55 717.94,147.36 718.59,146.61 719.24,133.66 719.88,128.97 720.53,117.33 721.18,111.70 721.83,112.26 722.48,112.08 723.12,115.83 723.77,119.77 724.42,124.09 725.07,131.41 725.71,132.91 726.36,142.67 727.01,140.42 727.66,152.43 728.30,145.86 728.95,137.98 729.60,158.43 730.25,139.48 730.90,139.67 731.54,140.79 732.19,137.98 732.84,139.85 733.49,139.67 734.13,146.23 734.78,147.36 735.43,152.62 736.08,152.43 736.72,149.61 737.37,151.49 738.02,152.05 738.67,151.87 739.31,155.24 739.96,147.92 740.61,145.11 741.26,146.05 741.91,135.91 742.55,116.02 743.20,117.33 743.85,118.08 744.50,116.02 745.14,119.77 745.79,122.02 746.44,125.59 747.09,130.47 747.73,132.16 748.38,142.67 749.03,137.41 749.68,142.48 750.33,138.16 750.97,140.42 751.62,139.48 752.27,137.60 752.92,143.79 753.56,135.72 754.21,139.85 754.86,139.48 755.51,141.35 756.15,148.86 756.80,146.05 757.45,154.12 758.10,156.74 758.74,152.80 759.39,151.49 760.04,145.67 760.69,148.67 761.34,144.55 761.98,142.29 762.63,136.10 763.28,122.40 763.93,114.14 764.57,108.51 765.22,107.01 765.87,102.13 766.52,114.70 767.16,122.21 767.81,120.15 768.46,126.53 769.11,125.59 769.76,130.28 770.40,138.91 771.05,131.41 771.70,133.28 772.35,133.85 772.99,136.66 773.64,134.97 774.29,141.17 774.94,140.42 775.58,138.91 776.23,138.91 776.88,137.23 777.53,140.60 778.18,144.73 778.82,144.17 779.47,148.86 780.12,147.92 780.77,151.68 781.41,149.61 782.06,154.12 782.71,154.12 783.36,147.17 784.00,134.04 784.65,127.09 785.30,116.77 785.95,112.45 786.59,107.38 787.24,103.44 787.89,108.32 788.54,115.83 789.19,117.89 789.83,127.84 790.48,139.67 791.13,134.41 791.78,141.17 792.42,136.66 793.07,141.35 793.72,139.29 794.37,136.66 795.01,137.41 795.66,133.10 796.31,138.91 796.96,136.66 797.61,143.61 798.25,150.18 798.90,142.11 799.55,141.17 800.20,152.80 800.84,150.18 801.49,149.80 802.14,146.42 802.79,148.49 803.43,147.74 804.08,150.36 804.73,139.29 805.38,137.41 806.03,131.03 806.67,116.58 807.32,106.07 807.97,104.01 808.62,109.45 809.26,112.26 809.91,112.64 810.56,116.21 811.21,122.40 811.85,131.03 812.50,132.53 813.15,140.98 813.80,143.42 814.44,139.10 815.09,138.16 815.74,135.16 816.39,137.04 817.04,146.05 817.68,138.73 818.33,143.04 818.98,141.92 819.63,142.67 820.27,155.43 820.92,157.68 821.57,155.43 822.22,146.61 822.86,146.61 823.51,142.67 824.16,147.55 824.81,149.24 825.46,148.67 826.10,143.61 826.75,140.98 827.40,131.78 828.05,118.83 828.69,121.09 829.34,128.59 829.99,118.27 830.64,122.40 831.28,121.65 831.93,130.47 832.58,135.91 833.23,139.29 833.87,142.48 834.52,143.79 835.17,146.61 835.82,140.04 836.47,143.61 837.11,147.74 837.76,140.42 838.41,126.34 839.06,138.91 839.70,143.61 840.35,145.30 841.00,141.17 841.65,144.73 842.29,145.11 842.94,149.43 843.59,148.49 844.24,154.49 844.89,159.00 845.53,149.99 846.18,151.87 846.83,150.18 847.48,141.17 848.12,141.17 848.77,126.90 849.42,117.89 850.07,120.52 850.71,113.95 851.36,113.77 852.01,124.28 852.66,136.66 853.31,130.47 853.95,134.97 854.60,136.66 855.25,139.10 855.90,145.67 856.54,139.10 857.19,137.04 857.84,139.29 858.49,138.35 859.13,137.79 859.78,138.73 860.43,143.79 861.08,142.67 861.72,139.67 862.37,141.92 863.02,145.86 863.67,145.11 864.32,146.23 864.96,144.92 865.61,150.18 866.26,149.43 866.91,151.49 867.55,147.36 868.20,150.36 868.85,135.72 869.50,124.65 870.14,113.95 870.79,106.63 871.44,104.19 872.09,101.94 872.74,102.13 873.38,106.63 874.03,111.33 874.68,117.14 875.33,124.65 875.97,130.66 876.62,130.84 877.27,129.72 877.92,125.21 878.56,127.65 879.21,128.78 879.86,128.03 880.51,126.34 881.15,132.16 881.80,132.16 882.45,137.04 883.10,139.67 883.75,144.73 884.39,140.23 885.04,140.60 885.69,140.60 886.34,143.23 886.98,145.86 887.63,144.92 888.28,142.67 888.93,144.17 889.57,136.66 890.22,125.03 890.87,117.71 891.52,110.57 892.17,98.94 892.81,94.43 893.46,99.50 894.11,98.38 894.76,107.57 895.40,111.33 896.05,113.58 896.70,121.46 897.35,124.65 897.99,126.72 898.64,129.16 899.29,134.22 899.94,129.34 900.59,124.09 901.23,125.21 901.88,126.15 902.53,129.72 903.18,132.16 903.82,134.79 904.47,136.29 905.12,138.16 905.77,140.42 906.41,147.74 907.06,148.67 907.71,144.73 908.36,146.61 909.00,146.61 909.65,144.17 910.30,146.05 910.95,145.48 911.60,133.66 912.24,123.71 912.89,112.45 913.54,104.57 914.19,99.31 914.83,100.63 915.48,102.50 916.13,102.50 916.78,109.26 917.42,115.64 918.07,123.15 918.72,127.09 919.37,131.78 920.02,131.03 920.66,131.97 921.31,133.66 921.96,131.78 922.61,135.54 923.25,129.91 923.90,129.16 924.55,133.85 925.20,134.97 925.84,140.98 926.49,142.67 927.14,139.85 927.79,143.23 928.44,144.36 929.08,147.74 929.73,149.43 930.38,156.74 931.03,151.30 931.67,145.30 932.32,144.36 932.97,136.66 933.62,126.15 934.26,116.58 934.91,107.57 935.56,109.45 936.21,98.38 936.85,106.07 937.50,112.08 938.15,117.14 938.80,123.15 939.45,125.21 940.09,128.78 940.74,132.53 941.39,134.41 942.04,132.53 942.68,129.16 943.33,130.28 943.98,129.72 944.63,136.10 945.27,137.60 945.92,141.92 946.57,138.54 947.22,140.23 947.87,141.35 948.51,142.67 949.16,144.92 949.81,149.61 950.46,144.36 951.10,139.67 951.75,149.80 952.40,149.24 953.05,148.86 953.69,144.55 954.34,143.42 954.99,118.46 955.64,111.14 956.28,103.44 956.93,99.69 957.58,96.87 958.23,101.75 958.88,106.63 959.52,112.64 960.17,123.90 960.82,128.03 961.47,135.91 962.11,140.79 962.76,131.22 963.41,130.84 964.06,129.72 964.70,133.28 965.35,141.17 966.00,130.47"/>
</svg>
