<svg xmlns="http://www.w3.org/2000/svg" width="1000" height="260" viewBox="0 0 1000 260">
  <rect width="100%" height="100%" fill="#0b0f14"/>
  <text x="34" y="22" fill="#f4f7fb" font-family="monospace" font-size="16">ear_connected</text>
  <polyline fill="none" stroke="#31d4ff" stroke-width="1.5" points="34.00,135.54 35.95,141.35 37.90,149.43 39.85,143.61 41.80,140.60 43.75,133.66 45.70,133.10 47.65,133.85 49.60,129.34 51.55,133.66 53.50,133.28 55.45,134.60 57.40,141.17 59.35,139.85 61.30,129.53 63.25,141.17 65.20,139.10 67.15,143.04 69.10,137.79 71.05,144.17 73.00,142.11 74.95,143.23 76.90,143.79 78.85,137.04 80.79,138.16 82.74,138.35 84.69,137.79 86.64,126.34 88.59,123.15 90.54,122.59 92.49,115.08 94.44,113.77 96.39,117.33 98.34,122.21 100.29,128.97 102.24,126.90 104.19,136.85 106.14,138.91 108.09,142.48 110.04,140.04 111.99,141.92 113.94,136.66 115.89,134.04 117.84,133.10 119.79,137.60 121.74,135.35 123.69,139.29 125.64,135.16 127.59,140.79 129.54,145.11 131.49,144.36 133.44,140.42 135.39,149.43 137.34,140.79 139.29,137.60 141.24,144.73 143.19,142.29 145.14,140.60 147.09,150.93 149.04,140.79 150.99,142.67 152.94,140.98 154.89,139.67 156.84,134.97 158.79,129.34 160.74,126.15 162.69,115.64 164.64,117.52 166.59,119.02 168.54,112.08 170.49,121.09 172.44,123.15 174.38,131.78 176.33,133.10 178.28,136.66 180.23,137.98 182.18,138.91 184.13,137.23 186.08,133.66 188.03,138.73 189.98,136.66 191.93,137.04 193.88,137.79 195.83,136.66 197.78,137.04 199.73,138.54 201.68,145.11 203.63,141.17 205.58,139.67 207.53,141.92 209.48,140.23 211.43,139.67 213.38,141.17 215.33,139.10 217.28,145.48 219.23,139.10 221.18,140.98 223.13,143.42 225.08,144.73 227.03,137.41 228.98,130.09 230.93,130.66 232.88,120.52 234.83,116.39 236.78,120.15 238.73,121.84 240.68,127.09 242.63,122.59 244.58,130.09 246.53,133.66 248.48,138.16 250.43,138.16 252.38,136.66 254.33,136.85 256.28,138.91 258.23,139.67 260.18,135.72 262.13,137.79 264.08,134.22 266.03,136.66 267.97,136.29 269.92,137.79 271.87,141.17 273.82,142.11 275.77,138.91 277.72,144.92 279.67,137.98 281.62,140.04 283.57,141.35 285.52,139.10 287.47,147.36 289.42,141.17 291.37,142.48 293.32,141.17 295.27,144.73 297.22,131.97 299.17,129.34 301.12,120.15 303.07,115.45 305.02,119.58 306.97,117.52 308.92,118.65 310.87,123.15 312.82,128.40 314.77,133.10 316.72,136.48 318.67,138.16 320.62,130.66 322.57,138.16 324.52,134.60 326.47,133.10 328.42,135.16 330.37,133.85 332.32,140.04 334.27,134.60 336.22,135.91 338.17,137.60 340.12,140.79 342.07,146.42 344.02,140.79 345.97,140.42 347.92,138.16 349.87,143.23 351.82,143.23 353.77,141.35 355.72,138.73 357.67,142.48 359.62,140.79 361.56,138.54 363.51,140.23 365.46,142.29 367.41,129.72 369.36,123.15 371.31,117.33 373.26,111.33 375.21,115.83 377.16,114.89 379.11,116.39 381.06,120.90 383.01,125.21 384.96,128.40 386.91,132.72 388.86,140.60 390.81,134.22 392.76,134.41 394.71,134.04 396.66,133.85 398.61,133.66 400.56,133.10 402.51,139.48 404.46,133.66 406.41,139.67 408.36,133.85 410.31,140.42 412.26,144.17 414.21,143.42 416.16,141.92 418.11,137.23 420.06,139.10 422.01,141.17 423.96,138.16 425.91,138.54 427.86,136.48 429.81,144.17 431.76,140.23 433.71,139.29 435.66,140.23 437.61,132.91 439.56,126.34 441.51,118.46 443.46,119.02 445.41,113.39 447.36,113.77 449.31,118.08 451.26,115.83 453.21,119.40 455.15,126.72 457.10,127.65 459.05,132.16 461.00,132.91 462.95,136.66 464.90,134.41 466.85,130.66 468.80,131.97 470.75,130.66 472.70,127.47 474.65,124.09 476.60,124.46 478.55,124.28 480.50,128.22 482.45,130.09 484.40,131.22 486.35,134.41 488.30,133.85 490.25,131.78 492.20,141.73 494.15,138.73 496.10,142.67 498.05,139.48 500.00,139.67 501.95,140.60 503.90,144.36 505.85,140.98 507.80,132.16 509.75,128.40 511.70,120.71 513.65,114.70 515.60,115.08 517.55,118.65 519.50,126.90 521.45,122.59 523.40,132.35 525.35,139.29 527.30,140.60 529.25,144.17 531.20,142.67 533.15,142.86 535.10,140.60 537.05,145.67 539.00,146.61 540.95,139.10 542.90,143.98 544.85,141.17 546.79,143.04 548.74,144.92 550.69,150.93 552.64,146.61 554.59,142.67 556.54,142.86 558.49,141.73 560.44,147.17 562.39,145.30 564.34,143.04 566.29,143.42 568.24,143.23 570.19,142.67 572.14,136.66 574.09,130.66 576.04,130.09 577.99,119.40 579.94,124.84 581.89,117.89 583.84,122.59 585.79,128.22 587.74,131.41 589.69,136.66 591.64,135.72 593.59,145.67 595.54,141.35 597.49,145.48 599.44,143.79 601.39,143.23 603.34,115.08 605.29,138.35 607.24,139.10 609.19,138.16 611.14,136.85 613.09,145.48 615.04,138.35 616.99,140.23 618.94,142.11 620.89,143.42 622.84,143.04 624.79,142.11 626.74,142.67 628.69,147.92 630.64,151.30 632.59,147.92 634.54,134.79 636.49,127.65 638.44,118.65 640.38,115.08 642.33,117.14 644.28,120.52 646.23,121.65 648.18,124.65 650.13,134.97 652.08,132.35 654.03,133.85 655.98,135.54 657.93,137.41 659.88,141.17 661.83,142.67 663.78,146.42 665.73,139.85 667.68,143.23 669.63,139.67 671.58,139.48 673.53,140.04 675.48,138.16 677.43,144.73 679.38,139.67 681.33,142.29 683.28,145.67 685.23,139.10 687.18,147.55 689.13,140.42 691.08,149.05 693.03,140.98 694.98,138.91 696.93,137.04 698.88,127.65 700.83,128.03 702.78,120.90 704.73,120.71 706.68,125.78 708.63,117.14 710.58,124.46 712.53,126.72 714.48,135.72 716.43,138.73 718.38,138.35 720.33,143.61 722.28,138.16 724.23,142.86 726.18,136.85 728.13,140.79 730.08,141.92 732.03,135.72 733.97,141.92 735.92,137.60 737.87,144.55 739.82,144.73 741.77,144.73 743.72,139.10 745.67,140.42 747.62,144.92 749.57,141.92 751.52,140.98 753.47,145.11 755.42,143.61 757.37,144.17 759.32,138.16 761.27,136.66 763.22,131.41 765.17,126.15 767.12,123.15 769.07,118.27 771.02,120.71 772.97,122.21 774.92,124.46 776.87,127.65 778.82,131.78 780.77,136.85 782.72,137.04 784.67,146.80 786.62,142.29 788.57,145.67 790.52,144.55 792.47,137.04 794.42,144.17 796.37,139.29 798.32,141.35 800.27,139.48 802.22,138.91 804.17,142.29 806.12,141.17 808.07,145.67 810.02,142.67 811.97,144.17 813.92,146.61 815.87,138.91 817.82,142.48 819.77,139.67 821.72,143.98 823.67,139.67 825.62,135.16 827.56,134.97 829.51,124.65 831.46,128.03 833.41,120.90 835.36,120.15 837.31,122.96 839.26,125.21 841.21,133.28 843.16,134.60 845.11,134.41 847.06,141.54 849.01,139.48 850.96,143.98 852.91,142.11 854.86,147.92 856.81,140.79 858.76,139.67 860.71,138.73 862.66,134.04 864.61,142.29 866.56,139.67 868.51,142.11 870.46,139.48 872.41,140.60 874.36,145.11 876.31,142.48 878.26,146.42 880.21,143.98 882.16,143.23 884.11,131.03 886.06,138.16 888.01,138.16 889.96,137.60 891.91,132.16 893.86,132.91 895.81,125.96 897.76,122.21 899.71,119.40 901.66,127.28 903.61,126.34 905.56,130.84 907.51,136.29 909.46,135.72 911.41,134.60 913.36,139.29 915.31,142.48 917.26,145.67 919.21,137.41 921.15,142.11 923.10,139.10 925.05,143.98 927.00,144.17 928.95,140.98 930.90,146.05 932.85,133.66 934.80,138.54 936.75,138.73 938.70,141.92 940.65,145.86 942.60,141.17 944.55,144.73 946.50,137.98 948.45,142.67 950.40,140.79 952.35,141.17 954.30,138.16 956.25,135.35 958.20,136.66 960.15,130.66 962.10,125.78 964.05,125.59 966.00,119.77"/>
</svg>
