<svg xmlns="http://www.w3.org/2000/svg" width="1000" height="260" viewBox="0 0 1000 260">
  <rect width="100%" height="100%" fill="#0b0f14"/>
  <text x="34" y="22" fill="#f4f7fb" font-family="monospace" font-size="16">ear_connected</text>
  <polyline fill="none" stroke="#31d4ff" stroke-width="1.5" points="34.00,139.67 35.95,141.73 37.89,149.24 39.84,147.17 41.78,147.55 43.73,144.36 45.67,146.05 47.62,154.68 49.57,149.99 51.51,147.92 53.46,149.61 55.40,156.37 57.35,159.94 59.29,154.12 61.24,151.30 63.19,143.42 65.13,138.16 67.08,125.40 69.02,115.83 70.97,111.14 72.91,103.44 74.86,104.57 76.81,106.07 78.75,109.45 80.70,117.33 82.64,121.46 84.59,126.15 86.53,127.65 88.48,132.35 90.43,139.29 92.37,132.16 94.32,140.23 96.26,134.97 98.21,143.04 100.15,141.73 102.10,138.73 104.05,145.86 105.99,142.67 107.94,145.30 109.88,146.99 111.83,146.99 113.77,148.11 115.72,148.86 117.67,151.68 119.61,149.99 121.56,152.62 123.50,154.12 125.45,150.36 127.39,158.62 129.34,143.98 131.29,135.16 133.23,122.77 135.18,112.64 137.12,106.45 139.07,98.19 141.01,99.50 142.96,100.63 144.91,107.38 146.85,119.96 148.80,119.02 150.74,131.97 152.69,134.41 154.63,135.54 156.58,134.22 158.53,139.85 160.47,142.48 162.42,139.85 164.36,136.85 166.31,133.47 168.25,140.04 170.20,141.92 172.15,143.79 174.09,148.30 176.04,147.74 177.98,152.24 179.93,148.86 181.87,149.99 183.82,152.62 185.77,148.67 187.71,151.49 189.66,151.30 191.60,154.30 193.55,158.43 195.49,154.12 197.44,158.62 199.39,150.74 201.33,141.54 203.28,132.53 205.22,121.27 207.17,118.83 209.11,104.94 211.06,102.13 213.01,97.62 214.95,100.06 216.90,111.14 218.84,112.64 220.79,126.90 222.73,125.78 224.68,128.40 226.63,130.66 228.57,134.04 230.52,141.54 232.46,137.79 234.41,137.41 236.35,135.35 238.30,139.67 240.25,140.42 242.19,143.42 244.14,148.49 246.08,146.23 248.03,146.61 249.97,144.36 251.92,149.43 253.87,149.43 255.81,148.49 257.76,149.43 259.70,152.62 261.65,153.18 263.59,158.25 265.54,152.99 267.49,162.75 269.43,154.12 271.38,151.87 273.32,150.18 275.27,144.73 277.22,138.91 279.16,124.46 281.11,111.14 283.05,103.82 285.00,104.38 286.94,101.19 288.89,103.63 290.84,111.14 292.78,114.33 294.73,119.40 296.67,123.52 298.62,134.04 300.56,134.97 302.51,133.10 304.46,138.16 306.40,136.66 308.35,144.73 310.29,145.67 312.24,143.98 314.18,143.98 316.13,142.11 318.08,142.11 320.02,142.86 321.97,144.17 323.91,147.36 325.86,149.43 327.80,150.93 329.75,148.67 331.70,152.43 333.64,155.81 335.59,154.12 337.53,156.93 339.48,152.80 341.42,153.18 343.37,151.49 345.32,157.12 347.26,154.30 349.21,141.54 351.15,138.16 353.10,126.15 355.04,118.65 356.99,110.01 358.94,106.45 360.88,108.70 362.83,109.26 364.77,113.95 366.72,113.58 368.66,122.77 370.61,126.53 372.56,130.66 374.50,139.29 376.45,137.79 378.39,140.23 380.34,141.35 382.28,136.85 384.23,141.17 386.18,137.79 388.12,142.11 390.07,135.54 392.01,140.23 393.96,142.67 395.90,142.67 397.85,149.24 399.80,147.36 401.74,148.11 403.69,154.12 405.63,151.30 407.58,154.68 409.52,154.68 411.47,149.99 413.42,148.86 415.36,154.68 417.31,148.49 419.25,137.23 421.20,129.16 423.14,117.33 425.09,115.64 427.04,112.26 428.98,100.25 430.93,112.08 432.87,108.32 434.82,115.45 436.76,117.14 438.71,121.84 440.66,130.66 442.60,130.66 444.55,134.79 446.49,138.16 448.44,139.48 450.38,142.67 452.33,140.42 454.28,147.36 456.22,140.79 458.17,137.23 460.11,136.29 462.06,139.67 464.00,146.42 465.95,144.92 467.90,140.60 469.84,146.05 471.79,149.43 473.73,154.12 475.68,143.23 477.62,154.12 479.57,150.74 481.52,154.12 483.46,147.92 485.41,147.17 487.35,146.42 489.30,127.84 491.24,116.39 493.19,109.45 495.14,100.63 497.08,101.00 499.03,98.38 500.97,109.07 502.92,112.64 504.86,114.89 506.81,120.15 508.76,129.16 510.70,137.23 512.65,134.41 514.59,134.41 516.54,137.23 518.48,135.91 520.43,139.10 522.38,134.60 524.32,144.55 526.27,137.23 528.21,143.23 530.16,136.85 532.10,139.85 534.05,144.92 536.00,138.91 537.94,145.67 539.89,145.48 541.83,146.99 543.78,152.24 545.72,151.11 547.67,158.81 549.62,154.12 551.56,154.68 553.51,147.17 555.45,139.29 557.40,134.04 559.34,118.08 561.29,106.63 563.24,102.69 565.18,94.62 567.13,104.76 569.07,102.13 571.02,112.45 572.96,111.89 574.91,117.14 576.86,122.40 578.80,127.09 580.75,134.22 582.69,131.78 584.64,135.16 586.58,131.41 588.53,134.41 590.48,136.66 592.42,132.53 594.37,137.79 596.31,138.16 598.26,142.86 600.20,142.29 602.15,143.98 604.10,149.05 606.04,147.17 607.99,144.55 609.93,146.61 611.88,148.11 613.82,151.68 615.77,149.80 617.72,162.19 619.66,154.12 621.61,155.24 623.55,143.79 625.50,136.48 627.44,133.66 629.39,124.46 631.34,112.26 633.28,96.12 635.23,87.87 637.17,94.25 639.12,92.74 641.06,107.76 643.01,112.83 644.96,118.83 646.90,125.21 648.85,126.34 650.79,141.17 652.74,134.41 654.68,135.16 656.63,137.23 658.58,134.79 660.52,137.04 662.47,137.23 664.41,147.17 666.36,140.98 668.30,137.98 670.25,146.99 672.20,145.86 674.14,148.11 676.09,147.55 678.03,150.36 679.98,152.80 681.92,152.43 683.87,155.43 685.82,152.62 687.76,160.69 689.71,157.31 691.65,150.36 693.60,150.36 695.54,138.35 697.49,134.22 699.44,118.46 701.38,110.20 703.33,98.00 705.27,93.31 707.22,100.06 709.16,98.75 711.11,112.64 713.06,117.14 715.00,121.09 716.95,129.34 718.89,131.22 720.84,133.85 722.78,134.22 724.73,135.16 726.68,134.41 728.62,134.41 730.57,135.72 732.51,136.10 734.46,142.29 736.41,142.11 738.35,137.98 740.30,142.86 742.24,146.05 744.19,147.55 746.13,150.55 748.08,147.92 750.03,154.49 751.97,149.80 753.92,157.68 755.86,155.62 757.81,156.56 759.75,156.18 761.70,152.43 763.65,108.89 765.59,138.91 767.54,129.16 769.48,118.46 771.43,102.13 773.37,101.75 775.32,97.06 777.27,101.19 779.21,101.19 781.16,119.21 783.10,117.89 785.05,121.09 786.99,136.10 788.94,128.59 790.89,135.72 792.83,138.35 794.78,133.47 796.72,138.16 798.67,136.10 800.61,138.73 802.56,135.91 804.51,145.48 806.45,141.17 808.40,139.85 810.34,140.98 812.29,141.73 814.23,145.11 816.18,149.99 818.13,148.67 820.07,149.99 822.02,152.99 823.96,154.12 825.91,152.62 827.85,159.37 829.80,157.68 831.75,144.17 833.69,136.10 835.64,120.90 837.58,112.45 839.53,106.07 841.47,95.75 843.42,98.00 845.37,97.44 847.31,100.63 849.26,112.45 851.20,122.59 853.15,131.97 855.09,130.66 857.04,138.54 858.99,134.97 860.93,138.91 862.88,137.04 864.82,132.72 866.77,133.28 868.71,135.35 870.66,137.98 872.61,139.85 874.55,148.86 876.50,155.24 878.44,146.61 880.39,148.30 882.33,146.05 884.28,149.24 886.23,152.80 888.17,150.36 890.12,154.12 892.06,152.05 894.01,158.06 895.95,151.68 897.90,157.50 899.85,160.87 901.79,144.17 903.74,136.29 905.68,122.02 907.63,110.01 909.57,106.07 911.52,95.56 913.47,91.62 915.41,94.25 917.36,102.32 919.30,107.76 921.25,117.14 923.19,125.59 925.14,122.02 927.09,129.16 929.03,131.22 930.98,133.66 932.92,137.79 934.87,134.41 936.81,134.04 938.76,137.60 940.71,137.79 942.65,135.54 944.60,144.36 946.54,154.12 948.49,141.92 950.43,143.98 952.38,146.99 954.33,149.61 956.27,149.61 958.22,152.99 960.16,155.81 962.11,155.43 964.05,154.12 966.00,149.99"/>
</svg>
