<svg xmlns="http://www.w3.org/2000/svg" width="1000" height="260" viewBox="0 0 1000 260">
  <rect width="100%" height="100%" fill="#0b0f14"/>
  <text x="34" y="22" fill="#f4f7fb" font-family="monospace" font-size="16">none_connected</text>
  <polyline fill="none" stroke="#31d4ff" stroke-width="1.5" points="34.00,136.10 35.95,128.40 37.90,132.35 39.85,133.10 41.80,134.97 43.75,134.97 45.70,134.04 47.65,136.10 49.60,131.60 51.55,132.16 53.50,133.28 55.45,134.41 57.40,130.84 59.35,128.40 61.30,130.09 63.25,130.47 65.20,133.66 67.15,137.98 69.10,142.48 71.05,144.17 73.00,141.17 74.95,139.85 76.90,139.10 78.85,138.16 80.79,136.10 82.74,135.91 84.69,133.85 86.64,134.04 88.59,134.04 90.54,136.10 92.49,134.79 94.44,135.16 96.39,132.16 98.34,131.78 100.29,135.16 102.24,135.91 104.19,135.35 106.14,136.66 108.09,135.91 110.04,135.35 111.99,133.66 113.94,133.85 115.89,132.91 117.84,133.10 119.79,132.16 121.74,133.28 123.69,135.35 125.64,135.16 127.59,136.10 129.54,135.35 131.49,133.66 133.44,135.72 135.39,134.97 137.34,132.53 139.29,135.16 141.24,134.79 143.19,132.35 145.14,133.47 147.09,134.97 149.04,136.48 150.99,137.23 152.94,135.72 154.89,135.72 156.84,133.85 158.79,134.41 160.74,135.16 162.69,135.35 164.64,134.41 166.59,131.97 168.54,133.47 170.49,134.22 172.44,134.79 174.38,135.72 176.33,136.66 178.28,136.48 180.23,138.16 182.18,135.72 184.13,134.22 186.08,134.04 188.03,134.22 189.98,130.66 191.93,132.91 193.88,135.16 195.83,135.16 197.78,137.60 199.73,135.16 201.68,134.41 203.63,136.10 205.58,135.35 207.53,134.41 209.48,137.98 211.43,134.97 213.38,132.91 215.33,134.04 217.28,133.47 219.23,136.48 221.18,135.91 223.13,135.91 225.08,130.84 227.03,135.35 228.98,135.16 230.93,134.97 232.88,135.16 234.83,135.16 236.78,132.16 238.73,133.85 240.68,135.16 242.63,136.66 244.58,134.60 246.53,135.35 248.48,134.41 250.43,134.41 252.38,135.35 254.33,135.72 256.28,135.72 258.23,134.04 260.18,131.60 262.13,133.66 264.08,135.35 266.03,135.91 267.97,136.66 269.92,136.29 271.87,135.16 273.82,134.97 275.77,135.16 277.72,134.97 279.67,134.41 281.62,135.91 283.57,132.91 285.52,133.47 287.47,134.60 289.42,135.54 291.37,135.91 293.32,137.41 295.27,136.66 297.22,134.60 299.17,134.41 301.12,135.16 303.07,134.97 305.02,134.79 306.97,131.41 308.92,133.10 310.87,135.91 312.82,135.35 314.77,135.16 316.72,136.10 318.67,135.54 320.62,134.22 322.57,134.41 324.52,135.16 326.47,133.66 328.42,134.04 330.37,132.72 332.32,133.66 334.27,135.16 336.22,135.91 338.17,135.16 340.12,137.60 342.07,134.41 344.02,134.41 345.97,135.16 347.92,135.35 349.87,135.16 351.82,135.54 353.77,132.16 355.72,132.53 357.67,134.79 359.62,135.16 361.56,136.10 363.51,133.66 365.46,132.16 367.41,132.16 369.36,132.53 371.31,133.10 373.26,133.66 375.21,134.79 377.16,132.35 379.11,136.66 381.06,136.10 383.01,136.85 384.96,135.91 386.91,136.66 388.86,136.10 390.81,135.16 392.76,134.97 394.71,135.16 396.66,136.29 398.61,134.60 400.56,131.97 402.51,135.72 404.46,135.54 406.41,135.72 408.36,134.97 410.31,135.91 412.26,135.72 414.21,135.91 416.16,134.79 418.11,134.22 420.06,134.41 422.01,162.56 423.96,131.41 425.91,133.47 427.86,134.60 429.81,135.91 431.76,135.91 433.71,135.72 435.66,134.97 437.61,135.54 439.56,135.54 441.51,133.66 443.46,134.97 445.41,134.04 447.36,131.41 449.31,133.85 451.26,135.91 453.21,136.48 455.15,135.72 457.10,135.72 459.05,135.72 461.00,134.60 462.95,135.72 464.90,136.66 466.85,136.48 468.80,135.91 470.75,130.84 472.70,134.22 474.65,136.29 476.60,135.35 478.55,135.91 480.50,135.35 482.45,134.97 484.40,135.16 486.35,134.22 488.30,134.97 490.25,136.29 492.20,133.66 494.15,131.03 496.10,132.16 498.05,135.72 500.00,135.54 501.95,134.79 503.90,136.10 505.85,135.16 507.80,135.35 509.75,134.41 511.70,134.41 513.65,134.41 515.60,135.16 517.55,131.78 519.50,133.66 521.45,135.35 523.40,134.97 525.35,136.66 527.30,136.66 529.25,136.66 531.20,136.10 533.15,136.10 535.10,134.60 537.05,134.41 539.00,133.47 540.95,132.91 542.90,133.47 544.85,135.72 546.79,136.29 548.74,135.91 550.69,135.91 552.64,136.29 554.59,134.79 556.54,134.41 558.49,135.16 560.44,135.16 562.39,134.79 564.34,131.78 566.29,132.16 568.24,135.16 570.19,134.97 572.14,135.16 574.09,136.85 576.04,135.35 577.99,134.79 579.94,134.97 581.89,135.16 583.84,134.97 585.79,132.72 587.74,132.16 589.69,142.86 591.64,134.97 593.59,135.72 595.54,140.79 597.49,135.91 599.44,136.48 601.39,134.97 603.34,135.35 605.29,136.29 607.24,134.97 609.19,134.41 611.14,132.53 613.09,132.16 615.04,135.16 616.99,136.29 618.94,136.10 620.89,136.66 622.84,135.72 624.79,136.29 626.74,130.84 628.69,126.34 630.64,134.22 632.59,137.98 634.54,137.23 636.49,137.98 638.44,138.73 640.38,136.66 642.33,136.10 644.28,135.91 646.23,133.66 648.18,133.66 650.13,134.60 652.08,135.16 654.03,134.22 655.98,133.66 657.93,131.97 659.88,133.85 661.83,134.79 663.78,135.72 665.73,135.16 667.68,134.41 669.63,134.04 671.58,135.91 673.53,133.47 675.48,134.41 677.43,135.16 679.38,134.60 681.33,131.78 683.28,135.35 685.23,134.22 687.18,134.79 689.13,135.16 691.08,136.10 693.03,133.10 694.98,136.10 696.93,135.35 698.88,135.16 700.83,134.22 702.78,135.35 704.73,131.97 706.68,137.79 708.63,135.16 710.58,137.41 712.53,135.91 714.48,137.04 716.43,135.16 718.38,135.16 720.33,133.66 722.28,133.28 724.23,134.41 726.18,135.16 728.13,132.16 730.08,132.91 732.03,134.60 733.97,137.41 735.92,136.66 737.87,135.72 739.82,136.10 741.77,136.10 743.72,135.35 745.67,135.35 747.62,135.72 749.57,134.97 751.52,131.41 753.47,132.72 755.42,135.16 757.37,136.10 759.32,134.79 761.27,135.54 763.22,133.10 765.17,147.55 767.12,134.04 769.07,134.97 771.02,135.16 772.97,133.10 774.92,132.72 776.87,134.79 778.82,135.16 780.77,135.16 782.72,136.66 784.67,135.16 786.62,137.60 788.57,134.22 790.52,134.22 792.47,134.22 794.42,134.04 796.37,134.22 798.32,132.53 800.27,134.22 802.22,134.22 804.17,134.97 806.12,134.79 808.07,135.72 810.02,134.41 811.97,133.85 813.92,134.04 815.87,134.79 817.82,134.60 819.77,134.97 821.72,131.41 823.67,134.79 825.62,135.54 827.56,134.97 829.51,134.60 831.46,135.91 833.41,134.60 835.36,134.22 837.31,132.72 839.26,133.10 841.21,133.28 843.16,134.79 845.11,131.60 847.06,133.85 849.01,136.85 850.96,138.35 852.91,139.48 854.86,139.48 856.81,137.41 858.76,136.48 860.71,136.10 862.66,130.47 864.61,134.60 866.56,136.66 868.51,130.66 870.46,133.47 872.41,132.91 874.36,128.22 876.31,128.59 878.26,133.66 880.21,142.29 882.16,144.17 884.11,144.55 886.06,140.42 888.01,137.60 889.96,135.72 891.91,139.10 893.86,146.42 895.81,154.12 897.76,152.05 899.71,142.48 901.66,131.41 903.61,113.77 905.56,104.57 907.51,98.56 909.46,102.88 911.41,110.76 913.36,116.77 915.31,130.66 917.26,138.16 919.21,146.42 921.15,146.05 923.10,144.17 925.05,141.54 927.00,124.46 928.95,137.04 930.90,135.16 932.85,133.66 934.80,136.66 936.75,139.29 938.70,149.80 940.65,185.27 942.60,226.00 944.55,226.00 946.50,226.00 948.45,226.00 950.40,226.00 952.35,215.11 954.30,188.46 956.25,160.12 958.20,142.86 960.15,131.97 962.10,122.21 964.05,122.59 966.00,123.71"/>
</svg>
