<svg xmlns="http://www.w3.org/2000/svg" width="1000" height="260" viewBox="0 0 1000 260">
  <rect width="100%" height="100%" fill="#0b0f14"/>
  <text x="34" y="22" fill="#f4f7fb" font-family="monospace" font-size="16">none_connected</text>
  <polyline fill="none" stroke="#31d4ff" stroke-width="1.5" points="34.00,133.85 35.95,129.16 37.89,132.91 39.84,134.97 41.78,137.04 43.73,137.41 45.67,135.54 47.62,136.85 49.57,133.28 51.51,134.22 53.46,132.53 55.40,131.22 57.35,132.53 59.29,135.16 61.24,134.04 63.19,132.35 65.13,125.40 67.08,117.52 69.02,116.02 70.97,123.71 72.91,126.15 74.86,125.78 76.81,128.97 78.75,139.29 80.70,144.92 82.64,148.67 84.59,146.99 86.53,144.92 88.48,140.98 90.43,136.66 92.37,134.41 94.32,128.59 96.26,119.77 98.21,115.45 100.15,114.14 102.10,116.39 104.05,121.84 105.99,128.97 107.94,133.66 109.88,135.91 111.83,136.85 113.77,137.41 115.72,137.60 117.67,137.79 119.61,134.41 121.56,134.60 123.50,134.22 125.45,131.60 127.39,134.97 129.34,137.23 131.29,139.85 133.23,138.91 135.18,137.98 137.12,138.35 139.07,137.41 141.01,133.66 142.96,135.54 144.91,134.60 146.85,137.04 148.80,134.04 150.74,136.29 152.69,136.10 154.63,136.48 156.58,136.10 158.53,134.60 160.47,134.04 162.42,134.04 164.36,132.16 166.31,133.66 168.25,133.66 170.20,135.16 172.15,132.53 174.09,133.28 176.04,134.79 177.98,136.66 179.93,135.72 181.87,135.72 183.82,136.29 185.77,135.54 187.71,134.79 189.66,134.60 191.60,134.22 193.55,133.85 195.49,131.41 197.44,132.53 199.39,136.29 201.33,139.10 203.28,140.98 205.22,142.11 207.17,142.86 209.11,141.54 211.06,147.17 213.01,135.72 214.95,134.41 216.90,132.53 218.84,130.28 220.79,130.66 222.73,132.91 224.68,133.85 226.63,135.16 228.57,136.29 230.52,136.48 232.46,136.66 234.41,133.85 236.35,135.16 238.30,134.41 240.25,131.03 242.19,132.53 244.14,133.66 246.08,133.66 248.03,134.41 249.97,134.97 251.92,133.47 253.87,135.91 255.81,133.66 257.76,135.16 259.70,134.22 261.65,133.66 263.59,136.29 265.54,131.41 267.49,135.16 269.43,135.16 271.38,136.10 273.32,133.85 275.27,134.04 277.22,135.16 279.16,134.60 281.11,134.04 283.05,134.22 285.00,133.66 286.94,134.97 288.89,132.72 290.84,133.47 292.78,136.10 294.73,134.22 296.67,134.97 298.62,132.72 300.56,134.79 302.51,134.41 304.46,133.66 306.40,133.66 308.35,132.91 310.29,134.60 312.24,132.16 314.18,133.10 316.13,135.16 318.08,134.22 320.02,135.16 321.97,136.66 323.91,134.79 325.86,134.60 327.80,134.97 329.75,134.41 331.70,135.35 333.64,135.35 335.59,131.41 337.53,132.72 339.48,134.97 341.42,135.54 343.37,136.48 345.32,134.79 347.26,135.35 349.21,134.41 351.15,135.16 353.10,134.60 355.04,135.16 356.99,134.41 358.94,133.28 360.88,132.16 362.83,134.60 364.77,136.66 366.72,135.16 368.66,135.35 370.61,134.04 372.56,135.16 374.50,135.91 376.45,133.47 378.39,135.16 380.34,134.60 382.28,132.16 384.23,132.53 386.18,134.41 388.12,135.54 390.07,134.97 392.01,134.41 393.96,135.16 395.90,135.16 397.85,134.79 399.80,133.66 401.74,136.48 403.69,135.35 405.63,133.28 407.58,132.72 409.52,134.79 411.47,134.79 413.42,134.97 415.36,136.66 417.31,137.04 419.25,135.35 421.20,134.22 423.14,132.91 425.09,135.16 427.04,132.16 428.98,129.34 430.93,127.47 432.87,125.78 434.82,129.16 436.76,128.97 438.71,130.66 440.66,130.66 442.60,130.84 444.55,132.35 446.49,130.66 448.44,131.60 450.38,130.09 452.33,130.09 454.28,132.16 456.22,134.04 458.17,135.16 460.11,136.48 462.06,138.16 464.00,138.16 465.95,137.04 467.90,136.66 469.84,137.98 471.79,136.10 473.73,135.16 475.68,130.66 477.62,136.29 479.57,135.54 481.52,136.48 483.46,134.04 485.41,134.79 487.35,134.04 489.30,133.47 491.24,132.53 493.19,132.91 495.14,133.85 497.08,133.28 499.03,131.41 500.97,131.22 502.92,133.66 504.86,134.79 506.81,135.16 508.76,135.54 510.70,134.97 512.65,135.16 514.59,135.16 516.54,135.72 518.48,137.04 520.43,135.91 522.38,131.60 524.32,133.66 526.27,135.72 528.21,133.85 530.16,134.97 532.10,135.16 534.05,135.91 536.00,136.10 537.94,134.60 539.89,135.72 541.83,135.91 543.78,133.10 545.72,130.84 547.67,131.22 549.62,131.97 551.56,135.54 553.51,134.97 555.45,134.97 557.40,134.97 559.34,135.91 561.29,133.85 563.24,134.04 565.18,138.16 567.13,134.79 569.07,134.22 571.02,135.35 572.96,135.72 574.91,135.16 576.86,136.10 578.80,136.29 580.75,134.97 582.69,135.54 584.64,135.16 586.58,135.91 588.53,135.35 590.48,133.10 592.42,129.34 594.37,132.72 596.31,135.35 598.26,136.10 600.20,134.79 602.15,135.35 604.10,134.22 606.04,134.41 607.99,134.22 609.93,134.60 611.88,134.22 613.82,134.79 615.77,129.72 617.72,132.35 619.66,135.54 621.61,134.22 623.55,134.97 625.50,127.09 627.44,126.90 629.39,132.72 631.34,137.04 633.28,139.67 635.23,141.54 637.17,137.60 639.12,135.54 641.06,133.66 643.01,133.10 644.96,133.85 646.90,132.91 648.85,134.04 650.79,132.91 652.74,133.47 654.68,134.04 656.63,132.91 658.58,133.28 660.52,132.35 662.47,134.04 664.41,132.16 666.36,135.72 668.30,135.16 670.25,134.22 672.20,136.85 674.14,134.97 676.09,136.29 678.03,133.28 679.98,133.47 681.92,134.04 683.87,127.28 685.82,131.41 687.76,131.97 689.71,134.60 691.65,133.85 693.60,133.47 695.54,133.66 697.49,132.91 699.44,134.41 701.38,133.10 703.33,134.79 705.27,133.85 707.22,136.10 709.16,132.16 711.11,132.91 713.06,134.60 715.00,134.97 716.95,135.16 718.89,133.66 720.84,134.22 722.78,133.66 724.73,133.47 726.68,133.66 728.62,134.79 730.57,135.72 732.51,131.41 734.46,131.97 736.41,134.79 738.35,134.04 740.30,134.79 742.24,136.10 744.19,135.16 746.13,134.22 748.08,133.10 750.03,133.10 751.97,133.85 753.92,134.60 755.86,131.41 757.81,132.53 759.75,134.41 761.70,134.41 763.65,134.22 765.59,135.72 767.54,134.22 769.48,133.85 771.43,133.47 773.37,133.85 775.32,134.60 777.27,134.97 779.21,130.47 781.16,133.47 783.10,134.97 785.05,134.97 786.99,136.10 788.94,136.48 790.89,134.22 792.83,135.16 794.78,134.60 796.72,134.60 798.67,135.72 800.61,137.04 802.56,134.41 804.51,136.10 806.45,141.17 808.40,146.99 810.34,149.05 812.29,149.05 814.23,147.17 816.18,144.55 818.13,140.04 820.07,135.91 822.02,133.47 823.96,130.66 825.91,127.28 827.85,127.65 829.80,130.66 831.75,133.47 833.69,135.16 835.64,134.41 837.58,134.22 839.53,134.60 841.47,133.47 843.42,133.66 845.37,133.66 847.31,133.47 849.26,130.84 851.20,132.35 853.15,134.04 855.09,134.97 857.04,134.60 858.99,135.16 860.93,134.97 862.88,134.97 864.82,134.60 866.77,133.66 868.71,133.85 870.66,135.54 872.61,132.16 874.55,132.91 876.50,134.41 878.44,134.60 880.39,134.97 882.33,135.35 884.28,135.54 886.23,135.16 888.17,134.79 890.12,133.85 892.06,134.79 894.01,131.41 895.95,131.41 897.90,133.28 899.85,134.97 901.79,134.41 903.74,134.79 905.68,133.28 907.63,135.16 909.57,134.41 911.52,134.60 913.47,134.79 915.41,134.04 917.36,134.04 919.30,131.78 921.25,133.66 923.19,134.22 925.14,134.41 927.09,134.79 929.03,135.16 930.98,135.54 932.92,134.22 934.87,134.79 936.81,133.66 938.76,134.22 940.71,134.41 942.65,132.16 944.60,132.91 946.54,134.60 948.49,133.28 950.43,134.97 952.38,134.60 954.33,135.16 956.27,134.79 958.22,135.35 960.16,134.41 962.11,133.66 964.05,133.85 966.00,131.60"/>
</svg>
