<svg xmlns="http://www.w3.org/2000/svg" width="1000" height="260" viewBox="0 0 1000 260">
  <rect width="100%" height="100%" fill="#0b0f14"/>
  <text x="34" y="22" fill="#f4f7fb" font-family="monospace" font-size="16">none_connected</text>
  <polyline fill="none" stroke="#31d4ff" stroke-width="1.5" points="34.00,134.97 35.95,130.47 37.90,132.72 39.85,133.47 41.80,135.91 43.75,135.91 45.70,133.10 47.65,134.04 49.60,134.79 51.55,134.97 53.50,135.91 55.45,132.16 57.40,135.16 59.35,134.97 61.30,134.22 63.25,133.66 65.20,134.22 67.15,134.22 69.10,132.16 71.05,133.47 73.00,136.10 74.95,135.35 76.90,135.16 78.85,135.72 80.79,135.35 82.74,134.04 84.69,134.41 86.64,134.04 88.59,133.28 90.54,135.16 92.49,132.53 94.44,133.66 96.39,134.41 98.34,135.16 100.29,134.79 102.24,136.48 104.19,135.16 106.14,134.97 108.09,133.85 110.04,134.04 111.99,133.66 113.94,133.85 115.89,131.60 117.84,132.53 119.79,134.22 121.74,135.16 123.69,135.91 125.64,134.97 127.59,134.79 129.54,134.41 131.49,134.41 133.44,133.47 135.39,133.66 137.34,135.54 139.29,131.97 141.24,132.72 143.19,135.16 145.14,134.04 147.09,135.16 149.04,135.16 150.99,135.35 152.94,135.16 154.89,134.41 156.84,133.85 158.79,133.85 160.74,134.41 162.69,132.16 164.64,134.04 166.59,133.66 168.54,135.72 170.49,135.91 172.44,135.54 174.38,134.41 176.33,134.97 178.28,134.41 180.23,134.97 182.18,134.41 184.13,135.16 186.08,131.97 188.03,134.60 189.98,134.60 191.93,135.35 193.88,135.35 195.83,135.91 197.78,135.16 199.73,135.16 201.68,134.97 203.63,134.97 205.58,133.66 207.53,134.79 209.48,131.78 211.43,133.47 213.38,134.60 215.33,134.60 217.28,135.72 219.23,136.10 221.18,134.60 223.13,134.79 225.08,135.16 227.03,134.41 228.98,134.41 230.93,134.04 232.88,131.97 234.83,133.10 236.78,134.04 238.73,135.54 240.68,135.72 242.63,135.35 244.58,134.60 246.53,134.60 248.48,134.60 250.43,134.41 252.38,133.28 254.33,127.47 256.28,131.41 258.23,132.53 260.18,134.79 262.13,134.79 264.08,134.79 266.03,133.85 267.97,134.41 269.92,134.60 271.87,134.60 273.82,134.04 275.77,133.47 277.72,134.22 279.67,131.60 281.62,132.72 283.57,133.66 285.52,135.35 287.47,135.72 289.42,135.72 291.37,134.97 293.32,134.41 295.27,134.79 297.22,133.66 299.17,133.28 301.12,134.97 303.07,131.60 305.02,132.53 306.97,134.41 308.92,135.16 310.87,135.16 312.82,134.97 314.77,134.41 316.72,134.41 318.67,134.60 320.62,135.72 322.57,134.04 324.52,133.66 326.47,131.60 328.42,133.10 330.37,134.79 332.32,135.54 334.27,134.97 336.22,135.35 338.17,135.54 340.12,135.54 342.07,135.72 344.02,133.85 345.97,133.85 347.92,133.66 349.87,131.03 351.82,132.91 353.77,134.41 355.72,134.79 357.67,135.72 359.62,135.16 361.56,134.79 363.51,135.16 365.46,134.79 367.41,134.22 369.36,134.04 371.31,135.16 373.26,131.22 375.21,133.47 377.16,134.60 379.11,135.35 381.06,134.60 383.01,135.35 384.96,135.16 386.91,135.72 388.86,133.85 390.81,133.66 392.76,134.79 394.71,134.22 396.66,132.72 398.61,132.91 400.56,133.66 402.51,134.60 404.46,134.97 406.41,135.72 408.36,134.97 410.31,135.16 412.26,134.22 414.21,134.41 416.16,134.41 418.11,133.85 420.06,131.41 422.01,132.72 423.96,134.60 425.91,136.10 427.86,135.54 429.81,135.72 431.76,134.60 433.71,135.16 435.66,135.35 437.61,134.41 439.56,134.04 441.51,134.97 443.46,131.03 445.41,132.72 447.36,133.85 449.31,135.54 451.26,136.48 453.21,136.10 455.15,135.91 457.10,135.91 459.05,134.41 461.00,134.60 462.95,135.16 464.90,134.60 466.85,132.16 468.80,133.66 470.75,135.16 472.70,134.97 474.65,135.35 476.60,134.97 478.55,134.60 480.50,134.04 482.45,134.97 484.40,133.28 486.35,134.41 488.30,134.41 490.25,131.22 492.20,133.28 494.15,134.60 496.10,134.97 498.05,136.10 500.00,135.16 501.95,134.41 503.90,135.35 505.85,134.41 507.80,133.47 509.75,133.10 511.70,132.16 513.65,127.47 515.60,130.09 517.55,131.41 519.50,131.03 521.45,133.66 523.40,133.47 525.35,134.60 527.30,133.47 529.25,133.85 531.20,134.22 533.15,135.72 535.10,135.72 537.05,132.16 539.00,133.28 540.95,133.66 542.90,135.16 544.85,135.16 546.79,136.66 548.74,136.29 550.69,137.04 552.64,138.35 554.59,139.85 556.54,144.55 558.49,160.50 560.44,180.58 562.39,174.76 564.34,144.17 566.29,117.89 568.24,102.69 570.19,114.70 572.14,155.81 574.09,197.47 576.04,223.94 577.99,216.99 579.94,189.78 581.89,171.95 583.84,159.94 585.79,143.42 587.74,93.68 589.69,39.26 591.64,38.88 593.59,37.75 595.54,39.07 597.49,58.21 599.44,94.62 601.39,125.21 603.34,147.17 605.29,156.18 607.24,149.43 609.19,143.79 611.14,137.41 613.09,131.97 615.04,128.22 616.99,126.90 618.94,126.15 620.89,127.65 622.84,129.34 624.79,130.28 626.74,126.15 628.69,122.96 630.64,131.03 632.59,135.54 634.54,139.10 636.49,140.60 638.44,141.17 640.38,139.85 642.33,139.10 644.28,137.60 646.23,137.98 648.18,136.29 650.13,135.91 652.08,136.10 654.03,130.84 655.98,133.47 657.93,133.85 659.88,135.72 661.83,134.97 663.78,134.97 665.73,135.16 667.68,135.16 669.63,134.22 671.58,133.66 673.53,133.66 675.48,133.10 677.43,131.41 679.38,133.10 681.33,134.97 683.28,135.72 685.23,135.91 687.18,136.10 689.13,135.72 691.08,135.16 693.03,134.60 694.98,135.16 696.93,134.22 698.88,133.47 700.83,131.41 702.78,132.91 704.73,133.85 706.68,134.41 708.63,133.10 710.58,134.97 712.53,134.79 714.48,135.91 716.43,134.97 718.38,134.22 720.33,134.22 722.28,134.60 724.23,130.84 726.18,133.28 728.13,132.53 730.08,134.22 732.03,135.35 733.97,136.10 735.92,134.79 737.87,134.22 739.82,134.41 741.77,134.60 743.72,134.60 745.67,134.22 747.62,132.16 749.57,132.35 751.52,134.79 753.47,135.16 755.42,142.67 757.37,136.48 759.32,135.16 761.27,134.97 763.22,134.04 765.17,134.41 767.12,134.97 769.07,135.16 771.02,132.16 772.97,133.47 774.92,134.60 776.87,134.22 778.82,134.41 780.77,134.79 782.72,135.54 784.67,135.16 786.62,135.16 788.57,135.16 790.52,134.60 792.47,133.85 794.42,131.97 796.37,133.47 798.32,134.41 800.27,134.60 802.22,135.16 804.17,135.16 806.12,135.91 808.07,134.97 810.02,134.60 811.97,134.22 813.92,134.04 815.87,133.28 817.82,131.60 819.77,132.35 821.72,133.85 823.67,134.41 825.62,136.10 827.56,135.16 829.51,135.54 831.46,134.97 833.41,134.60 835.36,134.41 837.31,134.97 839.26,133.66 841.21,131.60 843.16,133.66 845.11,134.79 847.06,134.04 849.01,136.10 850.96,134.79 852.91,133.66 854.86,133.66 856.81,129.16 858.76,133.66 860.71,133.85 862.66,133.85 864.61,132.16 866.56,132.91 868.51,134.22 870.46,134.97 872.41,133.66 874.36,135.35 876.31,134.41 878.26,135.72 880.21,135.16 882.16,135.16 884.11,134.41 886.06,134.60 888.01,132.35 889.96,133.47 891.91,135.16 893.86,135.16 895.81,135.35 897.76,135.16 899.71,135.91 901.66,134.22 903.61,135.35 905.56,133.28 907.51,134.60 909.46,134.22 911.41,131.60 913.36,131.78 915.31,134.60 917.26,135.16 919.21,136.48 921.15,134.97 923.10,135.16 925.05,135.72 927.00,134.22 928.95,134.41 930.90,133.85 932.85,133.66 934.80,131.60 936.75,133.28 938.70,133.66 940.65,134.60 942.60,135.35 944.55,135.72 946.50,135.16 948.45,134.41 950.40,134.60 952.35,134.41 954.30,134.97 956.25,134.79 958.20,131.97 960.15,132.35 962.10,134.41 964.05,135.72 966.00,136.10"/>
</svg>
