<svg xmlns="http://www.w3.org/2000/svg" width="1000" height="260" viewBox="0 0 1000 260">
  <rect width="100%" height="100%" fill="#0b0f14"/>
  <text x="34" y="22" fill="#f4f7fb" font-family="monospace" font-size="16">ear_connected</text>
  <polyline fill="none" stroke="#31d4ff" stroke-width="1.5" points="34.00,97.06 35.95,92.18 37.89,103.63 39.84,108.70 41.78,116.21 43.73,112.64 45.67,115.64 47.62,124.09 49.57,128.59 51.51,134.22 53.46,134.97 55.40,134.60 57.35,140.04 59.29,140.04 61.24,137.98 63.19,140.60 65.13,145.48 67.08,139.67 69.02,137.04 70.97,140.42 72.91,144.17 74.86,149.61 76.81,148.67 78.75,149.24 80.70,150.18 82.64,149.05 84.59,152.24 86.53,154.12 88.48,160.69 90.43,152.99 92.37,146.80 94.32,137.23 96.26,127.65 98.21,116.02 100.15,103.07 102.10,94.25 104.05,94.43 105.99,96.50 107.94,112.64 109.88,117.14 111.83,122.96 113.77,127.65 115.72,130.09 117.67,133.10 119.61,134.97 121.56,139.67 123.50,139.10 125.45,139.48 127.39,139.48 129.34,135.35 131.29,135.72 133.23,143.04 135.18,142.67 137.12,141.17 139.07,140.04 141.01,145.67 142.96,143.23 144.91,149.43 146.85,150.74 148.80,147.92 150.74,154.30 152.69,154.12 154.63,151.49 156.58,155.43 158.53,150.93 160.47,139.48 162.42,123.90 164.36,110.57 166.31,101.38 168.25,96.87 170.20,93.50 172.15,94.43 174.09,102.69 176.04,107.38 177.98,119.58 179.93,126.15 181.87,133.66 183.82,138.91 185.77,135.16 187.71,139.67 189.66,134.41 191.60,137.04 193.55,137.23 195.49,134.60 197.44,139.10 199.39,135.35 201.33,143.04 203.28,144.17 205.22,150.18 207.17,148.30 209.11,147.17 211.06,151.49 213.01,147.92 214.95,152.62 216.90,155.24 218.84,151.68 220.79,151.87 222.73,150.18 224.68,132.91 226.63,139.67 228.57,125.03 230.52,91.81 232.46,98.94 234.41,88.62 236.35,87.11 238.30,96.31 240.25,100.25 242.19,106.45 244.14,115.64 246.08,119.21 248.03,131.97 249.97,134.22 251.92,142.48 253.87,141.17 255.81,136.10 257.76,139.29 259.70,135.16 261.65,135.72 263.59,137.60 265.54,135.16 267.49,138.73 269.43,141.35 271.38,144.55 273.32,144.17 275.27,150.93 277.22,156.56 279.16,150.74 281.11,150.18 283.05,149.99 285.00,154.12 286.94,159.18 288.89,155.24 290.84,154.87 292.78,152.05 294.73,139.48 296.67,131.22 298.62,117.52 300.56,108.13 302.51,90.12 304.46,92.18 306.40,86.74 308.35,96.87 310.29,110.01 312.24,110.76 314.18,116.96 316.13,123.15 318.08,131.78 320.02,142.11 321.97,143.61 323.91,140.23 325.86,138.54 327.80,135.91 329.75,130.84 331.70,136.10 333.64,138.16 335.59,135.16 337.53,140.42 339.48,144.17 341.42,203.67 343.37,149.24 345.32,156.56 347.26,161.44 349.21,151.30 351.15,150.93 353.10,151.87 355.04,157.68 356.99,159.00 358.94,151.30 360.88,151.49 362.83,148.86 364.77,145.48 366.72,131.97 368.66,118.46 370.61,108.32 372.56,95.18 374.50,90.12 376.45,90.12 378.39,98.19 380.34,104.57 382.28,107.38 384.23,116.02 386.18,121.84 388.12,134.97 390.07,132.91 392.01,140.04 393.96,140.98 395.90,135.72 397.85,133.28 399.80,132.16 401.74,134.79 403.69,138.54 405.63,137.04 407.58,142.86 409.52,139.67 411.47,142.67 413.42,151.11 415.36,152.43 417.31,154.30 419.25,149.43 421.20,152.80 423.14,150.74 425.09,154.68 427.04,156.74 428.98,152.80 430.93,156.93 432.87,149.99 434.82,138.16 436.76,124.46 438.71,113.95 440.66,102.69 442.60,93.87 444.55,91.62 446.49,95.75 448.44,102.50 450.38,113.95 452.33,119.96 454.28,127.65 456.22,133.66 458.17,138.16 460.11,123.90 462.06,147.74 464.00,144.36 465.95,139.29 467.90,135.91 469.84,138.91 471.79,138.73 473.73,146.42 475.68,139.10 477.62,139.67 479.57,145.86 481.52,145.11 483.46,150.18 485.41,155.62 487.35,154.68 489.30,150.18 491.24,148.86 493.19,150.74 495.14,150.93 497.08,154.12 499.03,147.17 500.97,144.55 502.92,128.78 504.86,114.14 506.81,96.31 508.76,97.81 510.70,96.50 512.65,92.74 514.59,96.87 516.54,106.45 518.48,115.45 520.43,125.40 522.38,128.59 524.32,135.16 526.27,140.42 528.21,137.41 530.16,141.92 532.10,137.98 534.05,140.60 536.00,131.41 537.94,134.41 539.89,133.85 541.83,133.47 543.78,139.29 545.72,135.72 547.67,138.54 549.62,139.29 551.56,140.98 553.51,145.48 555.45,149.43 557.40,148.49 559.34,141.92 561.29,145.30 563.24,141.92 565.18,146.05 567.13,142.67 569.07,124.09 571.02,110.76 572.96,101.38 574.91,90.12 576.86,86.93 578.80,90.68 580.75,99.88 582.69,100.06 584.64,111.51 586.58,114.89 588.53,121.65 590.48,132.35 592.42,132.53 594.37,135.54 596.31,139.85 598.26,136.85 600.20,140.42 602.15,142.67 604.10,145.67 606.04,137.23 607.99,134.41 609.93,138.91 611.88,145.67 613.82,151.30 615.77,145.67 617.72,150.74 619.66,147.92 621.61,151.87 623.55,152.99 625.50,154.68 627.44,166.69 629.39,152.24 631.34,141.17 633.28,124.46 635.23,116.58 637.17,107.95 639.12,92.56 641.06,91.06 643.01,90.12 644.96,101.75 646.90,111.89 648.85,119.77 650.79,128.22 652.74,130.09 654.68,136.48 656.63,138.73 658.58,142.67 660.52,146.61 662.47,142.11 664.41,138.91 666.36,137.79 668.30,141.35 670.25,139.85 672.20,142.67 674.14,145.48 676.09,141.92 678.03,148.49 679.98,144.17 681.92,149.05 683.87,161.25 685.82,150.74 687.76,155.43 689.71,150.93 691.65,147.74 693.60,136.66 695.54,126.34 697.49,116.21 699.44,100.82 701.38,94.43 703.33,87.68 705.27,97.62 707.22,109.45 709.16,106.26 711.11,118.83 713.06,125.96 715.00,133.28 716.95,143.61 718.89,142.67 720.84,148.49 722.78,141.54 724.73,139.67 726.68,135.72 728.62,141.73 730.57,143.61 732.51,141.73 734.46,145.11 736.41,139.67 738.35,147.92 740.30,148.49 742.24,154.68 744.19,156.93 746.13,154.12 748.08,157.12 750.03,147.55 751.97,145.67 753.92,134.97 755.86,116.96 757.81,102.32 759.75,90.30 761.70,84.11 763.65,92.56 765.59,95.37 767.54,106.07 769.48,110.95 771.43,118.46 773.37,122.96 775.32,133.85 777.27,142.86 779.21,136.85 781.16,138.35 783.10,139.10 785.05,141.17 786.99,141.54 788.94,144.55 790.89,150.74 792.83,145.11 794.78,146.80 796.72,145.30 798.67,146.80 800.61,158.25 802.56,149.43 804.51,154.68 806.45,154.12 808.40,152.05 810.34,151.49 812.29,145.30 814.23,134.79 816.18,108.89 818.13,95.75 820.07,88.99 822.02,81.11 823.96,92.56 825.91,91.81 827.85,94.06 829.80,100.44 831.75,115.64 833.69,123.15 835.64,131.97 837.58,139.67 839.53,138.16 841.47,136.48 843.42,138.54 845.37,140.60 847.31,141.17 849.26,136.66 851.20,139.67 853.15,142.11 855.09,158.25 857.04,151.30 858.99,151.68 860.93,156.93 862.88,155.24 864.82,157.50 866.77,155.81 868.71,154.30 870.66,156.56 872.61,146.61 874.55,131.41 876.50,121.65 878.44,100.63 880.39,94.62 882.33,85.05 884.28,85.80 886.23,74.73 888.17,69.85 890.12,58.40 892.06,40.19 894.01,34.56 895.95,34.00 897.90,41.70 899.85,65.16 901.79,101.00 903.74,138.54 905.68,164.82 907.63,195.41 909.57,207.61 911.52,213.24 913.47,213.05 915.41,207.04 917.36,207.42 919.30,191.09 921.25,189.78 923.19,182.65 925.14,177.20 927.09,195.22 929.03,204.04 930.98,223.37 932.92,220.74 934.87,212.49 936.81,206.48 938.76,182.27 940.71,170.26 942.65,138.73 944.60,119.96 946.54,102.13 948.49,85.61 950.43,89.74 952.38,82.99 954.33,76.60 956.27,66.84 958.22,67.60 960.16,77.54 962.11,88.62 964.05,108.32 966.00,122.02"/>
</svg>
