<svg xmlns="http://www.w3.org/2000/svg" width="1000" height="260" viewBox="0 0 1000 260">
  <rect width="100%" height="100%" fill="#0b0f14"/>
  <text x="34" y="22" fill="#f4f7fb" font-family="monospace" font-size="16">none_unplugged</text>
  <polyline fill="none" stroke="#31d4ff" stroke-width="1.5" points="34.00,226.00 35.95,226.00 37.90,226.00 39.85,226.00 41.80,226.00 43.75,224.31 45.70,226.00 47.65,225.06 49.60,226.00 51.55,225.44 53.50,224.69 55.45,226.00 57.40,226.00 59.35,226.00 61.30,226.00 63.25,223.18 65.20,226.00 67.15,226.00 69.10,224.12 71.05,226.00 73.00,226.00 74.95,226.00 76.90,226.00 78.85,223.56 80.79,226.00 82.74,226.00 84.69,226.00 86.64,226.00 88.59,226.00 90.54,224.50 92.49,226.00 94.44,226.00 96.39,226.00 98.34,226.00 100.29,226.00 102.24,226.00 104.19,225.06 106.14,226.00 108.09,226.00 110.04,226.00 111.99,226.00 113.94,224.12 115.89,226.00 117.84,226.00 119.79,225.62 121.74,226.00 123.69,226.00 125.64,226.00 127.59,226.00 129.54,226.00 131.49,226.00 133.44,224.12 135.39,226.00 137.34,224.12 139.29,223.75 141.24,226.00 143.19,226.00 145.14,226.00 147.09,226.00 149.04,225.25 150.99,226.00 152.94,226.00 154.89,226.00 156.84,226.00 158.79,226.00 160.74,226.00 162.69,226.00 164.64,225.81 166.59,226.00 168.54,224.69 170.49,226.00 172.44,91.43 174.38,182.08 176.33,223.18 178.28,208.73 180.23,131.41 182.18,106.63 184.13,103.07 186.08,97.62 188.03,218.30 189.98,226.00 191.93,171.01 193.88,141.73 195.83,160.12 197.78,223.00 199.73,221.31 201.68,167.26 203.63,152.80 205.58,161.06 207.53,136.48 209.48,156.18 211.43,222.25 213.38,204.60 215.33,178.70 217.28,130.66 219.23,146.42 221.18,222.25 223.13,226.00 225.08,177.20 227.03,151.68 228.98,159.37 230.93,141.73 232.88,174.57 234.83,218.49 236.78,215.68 238.73,185.09 240.68,173.64 242.63,160.69 244.58,219.24 246.53,220.18 248.48,179.27 250.43,150.74 252.38,154.49 254.33,128.59 256.28,156.93 258.23,215.30 260.18,226.00 262.13,178.70 264.08,156.56 266.03,155.06 267.97,226.00 269.92,216.99 271.87,171.76 273.82,176.26 275.77,193.16 277.72,175.70 279.67,197.66 281.62,219.06 283.57,226.00 285.52,226.00 287.47,226.00 289.42,225.62 291.37,224.50 293.32,226.00 295.27,226.00 297.22,226.00 299.17,226.00 301.12,226.00 303.07,226.00 305.02,226.00 306.97,226.00 308.92,226.00 310.87,226.00 312.82,224.12 314.77,225.62 316.72,225.81 318.67,225.25 320.62,226.00 322.57,225.44 324.52,226.00 326.47,226.00 328.42,225.25 330.37,226.00 332.32,226.00 334.27,226.00 336.22,225.25 338.17,225.44 340.12,225.25 342.07,226.00 344.02,226.00 345.97,226.00 347.92,226.00 349.87,220.18 351.82,226.00 353.77,226.00 355.72,226.00 357.67,225.06 359.62,221.68 361.56,226.00 363.51,226.00 365.46,226.00 367.41,226.00 369.36,226.00 371.31,226.00 373.26,226.00 375.21,226.00 377.16,226.00 379.11,226.00 381.06,224.12 383.01,226.00 384.96,226.00 386.91,226.00 388.86,226.00 390.81,226.00 392.76,226.00 394.71,226.00 396.66,225.06 398.61,226.00 400.56,226.00 402.51,224.69 404.46,223.94 406.41,224.50 408.36,226.00 410.31,226.00 412.26,226.00 414.21,226.00 416.16,225.06 418.11,226.00 420.06,224.69 422.01,226.00 423.96,226.00 425.91,224.31 427.86,224.69 429.81,225.25 431.76,226.00 433.71,226.00 435.66,226.00 437.61,226.00 439.56,225.25 441.51,226.00 443.46,226.00 445.41,225.81 447.36,226.00 449.31,224.31 451.26,226.00 453.21,226.00 455.15,226.00 457.10,226.00 459.05,226.00 461.00,225.06 462.95,226.00 464.90,226.00 466.85,225.06 468.80,226.00 470.75,226.00 472.70,224.69 474.65,226.00 476.60,226.00 478.55,226.00 480.50,226.00 482.45,226.00 484.40,224.69 486.35,226.00 488.30,226.00 490.25,225.25 492.20,226.00 494.15,226.00 496.10,223.75 498.05,226.00 500.00,226.00 501.95,225.25 503.90,226.00 505.85,226.00 507.80,224.50 509.75,226.00 511.70,226.00 513.65,225.25 515.60,226.00 517.55,226.00 519.50,225.25 521.45,223.75 523.40,225.25 525.35,226.00 527.30,226.00 529.25,225.06 531.20,224.50 533.15,224.12 535.10,226.00 537.05,224.50 539.00,226.00 540.95,226.00 542.90,224.69 544.85,226.00 546.79,226.00 548.74,226.00 550.69,226.00 552.64,223.75 554.59,222.62 556.54,226.00 558.49,226.00 560.44,222.43 562.39,226.00 564.34,226.00 566.29,226.00 568.24,226.00 570.19,226.00 572.14,226.00 574.09,226.00 576.04,226.00 577.99,226.00 579.94,224.69 581.89,221.12 583.84,226.00 585.79,226.00 587.74,226.00 589.69,226.00 591.64,221.31 593.59,226.00 595.54,226.00 597.49,226.00 599.44,226.00 601.39,226.00 603.34,226.00 605.29,224.87 607.24,226.00 609.19,226.00 611.14,224.69 613.09,226.00 615.04,224.50 616.99,226.00 618.94,226.00 620.89,225.81 622.84,226.00 624.79,226.00 626.74,226.00 628.69,223.94 630.64,226.00 632.59,226.00 634.54,226.00 636.49,226.00 638.44,226.00 640.38,226.00 642.33,226.00 644.28,226.00 646.23,226.00 648.18,223.00 650.13,226.00 652.08,226.00 654.03,226.00 655.98,226.00 657.93,226.00 659.88,226.00 661.83,226.00 663.78,225.25 665.73,226.00 667.68,225.44 669.63,226.00 671.58,226.00 673.53,226.00 675.48,221.31 677.43,222.06 679.38,226.00 681.33,226.00 683.28,225.44 685.23,226.00 687.18,223.75 689.13,225.25 691.08,226.00 693.03,224.31 694.98,225.06 696.93,226.00 698.88,226.00 700.83,226.00 702.78,226.00 704.73,225.25 706.68,226.00 708.63,226.00 710.58,226.00 712.53,226.00 714.48,226.00 716.43,224.69 718.38,225.81 720.33,219.43 722.28,127.65 724.23,174.95 726.18,226.00 728.13,226.00 730.08,153.18 732.03,104.38 733.97,202.16 735.92,225.06 737.87,215.30 739.82,146.99 741.77,119.58 743.72,195.22 745.67,145.67 747.62,198.79 749.57,226.00 751.52,195.03 753.47,159.18 755.42,136.10 757.37,206.67 759.32,226.00 761.27,210.61 763.22,168.76 765.17,158.25 767.12,210.23 769.07,154.12 771.02,210.42 772.97,220.37 774.92,202.73 776.87,164.25 778.82,140.98 780.77,207.98 782.72,226.00 784.67,198.97 786.62,184.71 788.57,154.12 790.52,211.55 792.47,152.99 794.42,182.27 796.37,218.30 798.32,226.00 800.27,216.80 802.22,206.48 804.17,218.68 806.12,226.00 808.07,226.00 810.02,216.24 811.97,187.52 813.92,214.74 815.87,181.52 817.82,208.73 819.77,226.00 821.72,210.05 823.67,200.48 825.62,176.83 827.56,214.74 829.51,226.00 831.46,226.00 833.41,218.68 835.36,217.93 837.31,226.00 839.26,225.62 841.21,226.00 843.16,226.00 845.11,225.06 847.06,226.00 849.01,222.81 850.96,226.00 852.91,226.00 854.86,225.44 856.81,224.31 858.76,223.56 860.71,226.00 862.66,226.00 864.61,226.00 866.56,226.00 868.51,226.00 870.46,226.00 872.41,226.00 874.36,226.00 876.31,226.00 878.26,226.00 880.21,226.00 882.16,223.37 884.11,226.00 886.06,223.75 888.01,226.00 889.96,226.00 891.91,225.25 893.86,226.00 895.81,221.68 897.76,226.00 899.71,226.00 901.66,226.00 903.61,226.00 905.56,225.25 907.51,226.00 909.46,225.81 911.41,226.00 913.36,226.00 915.31,226.00 917.26,226.00 919.21,226.00 921.15,226.00 923.10,226.00 925.05,223.75 927.00,222.25 928.95,226.00 930.90,226.00 932.85,223.94 934.80,226.00 936.75,226.00 938.70,220.18 940.65,210.23 942.60,205.54 944.55,226.00 946.50,226.00 948.45,226.00 950.40,226.00 952.35,220.56 954.30,226.00 956.25,226.00 958.20,226.00 960.15,226.00 962.10,225.81 964.05,210.80 966.00,221.12"/>
</svg>
