<svg xmlns="http://www.w3.org/2000/svg" width="1000" height="260" viewBox="0 0 1000 260">
  <rect width="100%" height="100%" fill="#0b0f14"/>
  <text x="34" y="22" fill="#f4f7fb" font-family="monospace" font-size="16">ear_connected</text>
  <polyline fill="none" stroke="#31d4ff" stroke-width="1.5" points="34.00,120.15 35.95,123.34 37.90,131.97 39.85,136.66 41.80,130.66 43.75,131.60 45.70,136.10 47.65,135.16 49.60,135.54 51.55,139.10 53.50,137.98 55.45,138.16 57.40,135.72 59.35,132.16 61.30,142.11 63.25,133.28 65.20,133.66 67.15,139.29 69.10,136.10 71.05,141.92 73.00,137.23 74.95,150.18 76.90,139.10 78.85,138.16 80.79,140.23 82.74,133.66 84.69,136.85 86.64,132.16 88.59,129.34 90.54,120.71 92.49,119.77 94.44,121.84 96.39,123.52 98.34,128.22 100.29,130.28 102.24,136.66 104.19,132.16 106.14,135.35 108.09,136.66 110.04,135.91 111.99,140.42 113.94,135.72 115.89,136.66 117.84,134.60 119.79,135.35 121.74,142.11 123.69,136.66 125.64,135.35 127.59,139.67 129.54,136.85 131.49,139.48 133.44,137.23 135.39,136.48 137.34,140.42 139.29,135.16 141.24,140.98 143.19,139.85 145.14,138.16 147.09,132.91 149.04,127.09 150.99,121.46 152.94,117.14 154.89,119.40 156.84,119.21 158.79,127.65 160.74,126.72 162.69,133.28 164.64,134.04 166.59,136.66 168.54,140.23 170.49,138.16 172.44,139.10 174.38,137.98 176.33,132.91 178.28,133.85 180.23,134.22 182.18,136.66 184.13,133.66 186.08,133.47 188.03,141.17 189.98,138.54 191.93,145.86 193.88,141.35 195.83,141.73 197.78,136.66 199.73,136.48 201.68,137.41 203.63,136.29 205.58,138.16 207.53,132.35 209.48,126.90 211.43,126.53 213.38,122.21 215.33,123.15 217.28,124.84 219.23,123.34 221.18,128.78 223.13,130.66 225.08,133.85 227.03,137.60 228.98,138.16 230.93,136.85 232.88,143.23 234.83,140.79 236.78,136.29 238.73,138.91 240.68,138.73 242.63,133.66 244.58,133.66 246.53,134.41 248.48,135.16 250.43,135.35 252.38,138.35 254.33,134.60 256.28,138.91 258.23,141.17 260.18,145.30 262.13,141.54 264.08,141.73 266.03,132.53 267.97,126.90 269.92,125.21 271.87,125.59 273.82,116.21 275.77,120.15 277.72,116.77 279.67,121.46 281.62,127.09 283.57,129.72 285.52,134.22 287.47,133.85 289.42,136.10 291.37,135.91 293.32,138.35 295.27,136.66 297.22,133.66 299.17,133.66 301.12,133.85 303.07,139.48 305.02,133.47 306.97,136.66 308.92,139.10 310.87,142.29 312.82,137.60 314.77,135.16 316.72,141.92 318.67,136.29 320.62,136.29 322.57,137.04 324.52,136.66 326.47,139.67 328.42,131.60 330.37,121.09 332.32,121.27 334.27,117.89 336.22,118.27 338.17,116.77 340.12,126.15 342.07,121.65 344.02,127.84 345.97,131.60 347.92,133.10 349.87,137.98 351.82,136.29 353.77,143.42 355.72,140.79 357.67,140.04 359.62,135.16 361.56,133.66 363.51,139.29 365.46,135.35 367.41,136.85 369.36,194.28 371.31,135.91 373.26,140.79 375.21,140.04 377.16,143.79 379.11,142.11 381.06,139.48 383.01,139.29 384.96,137.60 386.91,141.17 388.86,133.66 390.81,123.15 392.76,120.15 394.71,112.26 396.66,113.58 398.61,115.64 400.56,118.83 402.51,126.15 404.46,124.84 406.41,127.65 408.36,131.22 410.31,135.16 412.26,134.41 414.21,134.60 416.16,137.79 418.11,132.91 420.06,139.67 422.01,137.60 423.96,134.79 425.91,143.04 427.86,139.85 429.81,138.54 431.76,137.79 433.71,138.35 435.66,143.61 437.61,139.48 439.56,139.67 441.51,138.73 443.46,141.17 445.41,141.17 447.36,145.67 449.31,141.92 451.26,137.98 453.21,130.84 455.15,121.65 457.10,114.14 459.05,117.52 461.00,111.51 462.95,115.45 464.90,121.09 466.85,128.03 468.80,133.10 470.75,135.35 472.70,141.73 474.65,137.60 476.60,143.61 478.55,135.16 480.50,134.97 482.45,133.47 484.40,133.28 486.35,138.91 488.30,133.28 490.25,137.23 492.20,134.41 494.15,141.17 496.10,146.99 498.05,144.36 500.00,141.92 501.95,139.85 503.90,142.48 505.85,142.86 507.80,138.16 509.75,141.35 511.70,140.42 513.65,140.04 515.60,139.10 517.55,132.53 519.50,127.47 521.45,121.65 523.40,116.96 525.35,113.39 527.30,118.83 529.25,124.09 531.20,124.65 533.15,130.47 535.10,130.47 537.05,138.35 539.00,142.67 540.95,139.67 542.90,142.86 544.85,138.91 546.79,134.60 548.74,132.91 550.69,135.35 552.64,138.35 554.59,137.04 556.54,137.98 558.49,137.60 560.44,140.04 562.39,141.92 564.34,147.17 566.29,143.23 568.24,141.17 570.19,146.80 572.14,138.91 574.09,138.91 576.04,138.54 577.99,136.66 579.94,142.48 581.89,131.41 583.84,130.47 585.79,125.96 587.74,115.45 589.69,116.58 591.64,117.14 593.59,119.77 595.54,118.83 597.49,128.97 599.44,127.65 601.39,130.84 603.34,136.66 605.29,135.54 607.24,140.79 609.19,135.91 611.14,141.92 613.09,139.10 615.04,139.67 616.99,136.85 618.94,133.66 620.89,137.60 622.84,135.72 624.79,137.98 626.74,144.92 628.69,147.36 630.64,147.17 632.59,144.17 634.54,140.42 636.49,142.11 638.44,138.54 640.38,140.42 642.33,137.60 644.28,141.54 646.23,135.91 648.18,131.78 650.13,130.09 652.08,119.02 654.03,121.09 655.98,112.26 657.93,117.89 659.88,116.96 661.83,124.09 663.78,126.34 665.73,126.15 667.68,130.09 669.63,132.91 671.58,134.97 673.53,136.48 675.48,134.60 677.43,140.42 679.38,138.16 681.33,140.60 683.28,135.91 685.23,136.29 687.18,136.66 689.13,134.60 691.08,139.29 693.03,139.10 694.98,141.54 696.93,141.73 698.88,140.23 700.83,140.42 702.78,140.60 704.73,146.42 706.68,142.29 708.63,147.92 710.58,149.24 712.53,138.73 714.48,139.29 716.43,159.37 718.38,125.40 720.33,119.96 722.28,112.26 724.23,119.02 726.18,111.14 728.13,117.14 730.08,124.65 732.03,129.16 733.97,121.46 735.92,131.22 737.87,132.91 739.82,134.04 741.77,135.16 743.72,136.10 745.67,136.10 747.62,139.29 749.57,132.91 751.52,139.10 753.47,137.60 755.42,139.48 757.37,140.60 759.32,136.85 761.27,139.10 763.22,137.60 765.17,141.17 767.12,142.11 769.07,139.29 771.02,144.73 772.97,141.17 774.92,146.05 776.87,144.73 778.82,142.48 780.77,151.11 782.72,140.98 784.67,134.41 786.62,128.97 788.57,124.84 790.52,121.46 792.47,111.70 794.42,111.89 796.37,114.70 798.32,120.15 800.27,126.15 802.22,131.41 804.17,133.66 806.12,134.60 808.07,136.10 810.02,133.10 811.97,132.91 813.92,138.16 815.87,135.35 817.82,137.41 819.77,137.41 821.72,134.97 823.67,139.29 825.62,142.86 827.56,142.29 829.51,141.35 831.46,140.23 833.41,138.54 835.36,139.67 837.31,144.17 839.26,140.42 841.21,148.11 843.16,143.98 845.11,144.17 847.06,147.17 849.01,145.67 850.96,147.36 852.91,139.48 854.86,133.66 856.81,124.65 858.76,117.89 860.71,119.58 862.66,110.39 864.61,115.27 866.56,115.27 868.51,125.59 870.46,127.47 872.41,130.66 874.36,141.35 876.31,131.78 878.26,136.66 880.21,134.97 882.16,135.16 884.11,135.35 886.06,134.04 888.01,135.35 889.96,132.72 891.91,137.98 893.86,138.91 895.81,137.41 897.76,143.61 899.71,137.60 901.66,140.42 903.61,142.48 905.56,142.67 907.51,144.73 909.46,141.17 911.41,143.61 913.36,139.67 915.31,143.23 917.26,146.23 919.21,143.79 921.15,144.73 923.10,137.04 925.05,138.54 927.00,125.59 928.95,121.09 930.90,118.08 932.85,113.95 934.80,117.14 936.75,115.45 938.70,120.15 940.65,123.52 942.60,130.66 944.55,130.28 946.50,130.66 948.45,135.35 950.40,136.85 952.35,134.60 954.30,134.79 956.25,132.53 958.20,133.85 960.15,133.47 962.10,140.42 964.05,138.16 966.00,139.85"/>
</svg>
