<svg xmlns="http://www.w3.org/2000/svg" width="1000" height="260" viewBox="0 0 1000 260">
  <rect width="100%" height="100%" fill="#0b0f14"/>
  <text x="34" y="22" fill="#f4f7fb" font-family="monospace" font-size="16">none_connected</text>
  <polyline fill="none" stroke="#31d4ff" stroke-width="1.5" points="34.00,134.22 35.95,128.40 37.90,132.35 39.85,135.35 41.80,136.66 43.75,136.66 45.70,136.29 47.65,135.16 49.60,133.66 51.55,133.10 53.50,134.79 55.45,132.16 57.40,132.91 59.35,133.47 61.30,132.53 63.25,133.66 65.20,135.54 67.15,136.66 69.10,136.66 71.05,135.72 73.00,136.10 74.95,135.54 76.90,134.97 78.85,135.72 80.79,136.29 82.74,134.97 84.69,132.53 86.64,135.35 88.59,137.60 90.54,136.85 92.49,137.60 94.44,135.54 96.39,136.85 98.34,134.60 100.29,134.97 102.24,134.60 104.19,135.72 106.14,133.85 108.09,132.16 110.04,133.66 111.99,136.48 113.94,134.04 115.89,136.48 117.84,135.16 119.79,135.16 121.74,135.91 123.69,134.60 125.64,135.16 127.59,132.72 129.54,135.72 131.49,133.10 133.44,135.91 135.39,135.91 137.34,134.79 139.29,135.16 141.24,136.66 143.19,138.16 145.14,134.41 147.09,135.16 149.04,135.54 150.99,135.91 152.94,136.10 154.89,128.97 156.84,134.22 158.79,135.72 160.74,135.72 162.69,136.10 164.64,133.66 166.59,135.35 168.54,135.35 170.49,135.72 172.44,134.97 174.38,135.16 176.33,127.09 178.28,132.16 180.23,133.10 182.18,135.91 184.13,135.72 186.08,135.35 188.03,135.72 189.98,134.60 191.93,134.22 193.88,133.85 195.83,134.22 197.78,133.66 199.73,135.16 201.68,131.97 203.63,134.04 205.58,136.29 207.53,136.66 209.48,137.04 211.43,135.72 213.38,135.16 215.33,134.22 217.28,134.60 219.23,134.04 221.18,131.97 223.13,134.60 225.08,143.79 227.03,135.72 228.98,135.72 230.93,136.29 232.88,134.60 234.83,135.16 236.78,134.22 238.73,135.35 240.68,133.85 242.63,133.66 244.58,135.35 246.53,135.91 248.48,131.41 250.43,108.89 252.38,135.35 254.33,136.48 256.28,136.66 258.23,136.10 260.18,135.54 262.13,135.35 264.08,136.48 266.03,135.91 267.97,135.16 269.92,137.79 271.87,132.35 273.82,134.04 275.77,134.60 277.72,136.48 279.67,135.35 281.62,135.16 283.57,136.10 285.52,133.66 287.47,134.97 289.42,134.79 291.37,140.79 293.32,134.79 295.27,132.16 297.22,135.16 299.17,134.60 301.12,136.66 303.07,135.91 305.02,135.35 306.97,136.10 308.92,134.97 310.87,134.97 312.82,134.97 314.77,135.16 316.72,133.47 318.67,133.66 320.62,134.97 322.57,135.54 324.52,135.72 326.47,135.35 328.42,136.85 330.37,133.66 332.32,134.79 334.27,136.29 336.22,134.04 338.17,135.72 340.12,133.85 342.07,135.35 344.02,134.60 345.97,134.79 347.92,139.10 349.87,135.54 351.82,134.97 353.77,133.85 355.72,136.10 357.67,134.60 359.62,134.22 361.56,133.28 363.51,134.79 365.46,132.16 367.41,134.79 369.36,135.35 371.31,135.16 373.26,135.72 375.21,135.54 377.16,132.53 379.11,135.16 381.06,135.91 383.01,136.10 384.96,132.91 386.91,134.60 388.86,131.97 390.81,134.22 392.76,133.85 394.71,133.66 396.66,136.48 398.61,133.10 400.56,135.16 402.51,134.97 404.46,134.41 406.41,135.91 408.36,133.66 410.31,134.41 412.26,131.41 414.21,134.22 416.16,136.10 418.11,135.16 420.06,135.91 422.01,135.91 423.96,135.35 425.91,134.04 427.86,128.22 429.81,133.85 431.76,135.91 433.71,134.22 435.66,132.16 437.61,134.41 439.56,135.91 441.51,136.66 443.46,136.10 445.41,134.97 447.36,136.48 449.31,133.66 451.26,135.72 453.21,136.10 455.15,135.91 457.10,134.41 459.05,131.60 461.00,134.60 462.95,135.16 464.90,136.29 466.85,134.97 468.80,134.60 470.75,135.54 472.70,139.85 474.65,136.85 476.60,134.97 478.55,134.41 480.50,133.66 482.45,132.16 484.40,134.22 486.35,135.91 488.30,136.85 490.25,136.66 492.20,137.23 494.15,135.54 496.10,134.97 498.05,134.79 500.00,134.41 501.95,133.85 503.90,134.04 505.85,133.10 507.80,132.53 509.75,135.72 511.70,135.16 513.65,137.23 515.60,137.41 517.55,134.97 519.50,134.41 521.45,135.72 523.40,133.28 525.35,135.16 527.30,135.35 529.25,131.78 531.20,134.60 533.15,135.54 535.10,135.35 537.05,136.48 539.00,135.72 540.95,134.79 542.90,134.79 544.85,132.91 546.79,134.41 548.74,134.97 550.69,133.28 552.64,133.28 554.59,132.35 556.54,134.60 558.49,135.35 560.44,135.72 562.39,135.16 564.34,135.72 566.29,135.16 568.24,135.54 570.19,134.97 572.14,134.41 574.09,134.41 576.04,133.10 577.99,132.16 579.94,135.54 581.89,137.04 583.84,135.35 585.79,135.16 587.74,134.79 589.69,134.60 591.64,137.04 593.59,134.60 595.54,134.60 597.49,133.66 599.44,133.28 601.39,135.16 603.34,134.04 605.29,137.79 607.24,135.35 609.19,135.35 611.14,135.16 613.09,135.35 615.04,130.28 616.99,134.22 618.94,134.22 620.89,132.72 622.84,131.22 624.79,134.04 626.74,130.28 628.69,128.40 630.64,137.23 632.59,137.79 634.54,135.16 636.49,135.16 638.44,134.41 640.38,133.47 642.33,132.91 644.28,133.85 646.23,130.84 648.18,135.16 650.13,142.86 652.08,136.10 654.03,134.97 655.98,135.16 657.93,135.91 659.88,135.16 661.83,135.16 663.78,135.91 665.73,134.79 667.68,133.47 669.63,133.10 671.58,133.66 673.53,133.47 675.48,134.60 677.43,136.48 679.38,134.60 681.33,134.04 683.28,135.35 685.23,134.60 687.18,135.91 689.13,133.85 691.08,134.41 693.03,131.03 694.98,133.10 696.93,133.28 698.88,133.85 700.83,134.04 702.78,133.47 704.73,134.04 706.68,133.47 708.63,134.97 710.58,133.47 712.53,133.66 714.48,133.28 716.43,130.84 718.38,134.41 720.33,135.72 722.28,134.60 724.23,136.48 726.18,136.10 728.13,135.16 730.08,133.47 732.03,133.28 733.97,133.66 735.92,133.47 737.87,133.66 739.82,131.41 741.77,132.16 743.72,134.04 745.67,133.10 747.62,132.72 749.57,130.66 751.52,130.84 753.47,132.16 755.42,131.60 757.37,130.66 759.32,131.41 761.27,130.66 763.22,124.84 765.17,128.03 767.12,131.60 769.07,132.53 771.02,131.78 772.97,133.47 774.92,134.79 776.87,134.97 778.82,132.16 780.77,134.22 782.72,132.72 784.67,131.60 786.62,124.84 788.57,125.59 790.52,135.72 792.47,145.86 794.42,140.42 796.37,136.10 798.32,132.72 800.27,123.90 802.22,113.58 804.17,113.39 806.12,116.96 808.07,122.77 810.02,124.46 811.97,131.60 813.92,133.66 815.87,133.47 817.82,133.10 819.77,130.66 821.72,129.34 823.67,125.78 825.62,123.71 827.56,122.77 829.51,121.65 831.46,121.65 833.41,117.14 835.36,117.89 837.31,117.14 839.26,112.64 841.21,109.07 843.16,100.06 845.11,93.68 847.06,89.18 849.01,90.68 850.96,99.69 852.91,109.64 854.86,121.84 856.81,132.16 858.76,140.98 860.71,140.60 862.66,143.23 864.61,140.23 866.56,142.29 868.51,141.17 870.46,140.98 872.41,139.48 874.36,139.67 876.31,139.29 878.26,137.41 880.21,126.90 882.16,134.41 884.11,142.29 886.06,124.65 888.01,48.08 889.96,34.00 891.91,34.00 893.86,34.00 895.81,34.00 897.76,34.00 899.71,34.00 901.66,34.00 903.61,34.00 905.56,34.00 907.51,34.00 909.46,34.00 911.41,34.00 913.36,34.00 915.31,34.00 917.26,34.00 919.21,34.00 921.15,34.00 923.10,34.00 925.05,34.00 927.00,34.00 928.95,34.00 930.90,34.00 932.85,34.00 934.80,34.00 936.75,34.00 938.70,34.00 940.65,34.00 942.60,34.00 944.55,34.00 946.50,34.00 948.45,34.00 950.40,55.58 952.35,92.74 954.30,124.65 956.25,141.17 958.20,147.17 960.15,143.04 962.10,140.60 964.05,138.91 966.00,133.10"/>
</svg>
