<svg xmlns="http://www.w3.org/2000/svg" width="1000" height="260" viewBox="0 0 1000 260">
  <rect width="100%" height="100%" fill="#0b0f14"/>
  <text x="34" y="22" fill="#f4f7fb" font-family="monospace" font-size="16">finger_connected</text>
  <polyline fill="none" stroke="#31d4ff" stroke-width="1.5" points="34.00,163.13 34.65,189.59 35.30,211.74 35.94,211.36 36.59,207.42 37.24,190.72 37.89,161.62 38.53,149.61 39.18,141.17 39.83,132.35 40.48,135.54 41.12,135.54 41.77,141.35 42.42,155.24 43.07,154.68 43.72,160.50 44.36,165.19 45.01,168.01 45.66,168.19 46.31,172.51 46.95,172.89 47.60,155.99 48.25,133.85 48.90,89.37 49.54,46.01 50.19,38.13 50.84,41.70 51.49,38.50 52.13,41.70 52.78,40.38 53.43,66.09 54.08,109.07 54.73,154.49 55.37,180.39 56.02,199.91 56.67,206.29 57.32,200.48 57.96,192.03 58.61,170.82 59.26,155.81 59.91,139.85 60.55,137.79 61.20,131.41 61.85,141.17 62.50,150.93 63.15,151.49 63.79,157.68 64.44,162.94 65.09,166.69 65.74,179.64 66.38,166.50 67.03,168.94 67.68,166.32 68.33,158.43 68.97,119.02 69.62,77.54 70.27,37.94 70.92,40.76 71.56,40.57 72.21,40.57 72.86,39.26 73.51,41.13 74.16,40.19 74.80,63.09 75.45,106.82 76.10,148.11 76.75,192.78 77.39,204.60 78.04,207.23 78.69,192.97 79.34,181.14 79.98,161.62 80.63,145.67 81.28,141.17 81.93,134.41 82.58,137.41 83.22,139.85 83.87,148.67 84.52,156.93 85.17,163.69 85.81,226.00 86.46,170.63 87.11,177.39 87.76,170.07 88.40,171.95 89.05,176.45 89.70,157.68 90.35,131.03 91.00,86.18 91.64,40.94 92.29,41.70 92.94,44.13 93.59,39.63 94.23,41.70 94.88,41.70 95.53,42.82 96.18,77.35 96.82,124.28 97.47,154.12 98.12,187.34 98.77,201.23 99.41,204.23 100.06,186.96 100.71,179.08 101.36,168.19 102.01,146.23 102.65,144.55 103.30,136.66 103.95,142.11 104.60,150.93 105.24,148.67 105.89,158.25 106.54,160.87 107.19,169.70 107.83,168.94 108.48,170.82 109.13,174.95 109.78,168.19 110.43,166.69 111.07,163.13 111.72,156.18 112.37,136.29 113.02,90.68 113.66,39.82 114.31,40.38 114.96,41.51 115.61,41.51 116.25,39.63 116.90,40.19 117.55,41.88 118.20,73.98 118.85,117.14 119.49,160.50 120.14,192.78 120.79,201.23 121.44,208.17 122.08,195.22 122.73,185.84 123.38,154.12 124.03,147.92 124.67,144.17 125.32,134.79 125.97,144.36 126.62,138.91 127.26,147.55 127.91,157.50 128.56,159.75 129.21,168.01 129.86,165.94 130.50,169.70 131.15,168.57 131.80,168.38 132.45,168.38 133.09,148.67 133.74,116.77 134.39,63.84 135.04,39.82 135.68,40.94 136.33,40.38 136.98,34.00 137.63,36.82 138.28,37.75 138.92,42.07 139.57,85.61 140.22,132.72 140.87,163.50 141.51,190.72 142.16,200.85 142.81,226.00 143.46,194.47 144.10,178.14 144.75,163.69 145.40,146.23 146.05,137.41 146.69,132.91 147.34,139.10 147.99,144.17 148.64,149.43 149.29,157.50 149.93,159.00 150.58,163.69 151.23,176.26 151.88,166.32 152.52,152.43 153.17,166.69 153.82,168.94 154.47,154.87 155.11,127.65 155.76,86.93 156.41,40.94 157.06,39.26 157.71,40.57 158.35,40.57 159.00,40.38 159.65,43.01 160.30,41.70 160.94,40.57 161.59,40.57 162.24,110.20 162.89,159.18 163.53,189.03 164.18,198.97 164.83,199.91 165.48,192.78 166.13,182.46 166.77,162.19 167.42,147.92 168.07,144.55 168.72,137.79 169.36,142.48 170.01,147.74 170.66,157.12 171.31,164.63 171.95,167.07 172.60,175.70 173.25,168.38 173.90,170.63 174.54,171.38 175.19,166.69 175.84,166.50 176.49,160.12 177.14,163.13 177.78,134.41 178.43,97.81 179.08,42.82 179.73,40.57 180.37,35.50 181.02,40.57 181.67,34.19 182.32,40.38 182.96,40.57 183.61,34.00 184.26,43.38 184.91,90.87 185.56,155.24 186.20,186.40 186.85,206.86 187.50,200.85 188.15,194.28 188.79,176.08 189.44,164.25 190.09,148.49 190.74,136.29 191.38,135.16 192.03,133.28 192.68,144.36 193.33,152.43 193.97,162.75 194.62,167.07 195.27,170.07 195.92,175.14 196.57,170.63 197.21,171.01 197.86,167.82 198.51,164.63 199.16,168.01 199.80,162.19 200.45,160.87 201.10,155.24 201.75,145.11 202.39,111.89 203.04,59.71 203.69,41.13 204.34,40.57 204.99,40.57 205.63,40.57 206.28,39.26 206.93,42.63 207.58,40.94 208.22,52.58 208.87,122.96 209.52,166.13 210.17,195.22 210.81,204.23 211.46,207.23 212.11,193.72 212.76,180.58 213.41,160.31 214.05,145.48 214.70,136.29 215.35,129.53 216.00,133.47 216.64,138.16 217.29,152.43 217.94,148.30 218.59,164.44 219.23,172.70 219.88,168.94 220.53,168.94 221.18,166.69 221.82,165.94 222.47,166.88 223.12,161.06 223.77,160.69 224.42,149.99 225.06,133.28 225.71,92.37 226.36,41.13 227.01,44.70 227.65,39.82 228.30,40.57 228.95,40.19 229.60,38.69 230.24,41.32 230.89,41.32 231.54,75.29 232.19,141.17 232.84,179.27 233.48,198.04 234.13,201.23 234.78,198.97 235.43,185.46 236.07,174.01 236.72,157.50 237.37,138.16 238.02,142.11 238.66,135.16 239.31,141.73 239.96,145.48 240.61,160.69 241.26,162.19 241.90,163.69 242.55,173.07 243.20,170.07 243.85,173.26 244.49,171.57 245.14,167.63 245.79,171.76 246.44,164.63 247.08,163.50 247.73,142.67 248.38,118.08 249.03,63.84 249.67,42.07 250.32,38.88 250.97,40.38 251.62,41.51 252.27,40.57 252.91,40.94 253.56,39.26 254.21,41.32 254.86,60.84 255.50,125.78 256.15,169.51 256.80,194.66 257.45,200.66 258.09,206.67 258.74,188.65 259.39,175.33 260.04,155.81 260.69,142.67 261.33,137.60 261.98,136.66 262.63,142.11 263.28,149.61 263.92,162.94 264.57,164.25 265.22,167.82 265.87,172.32 266.51,170.07 267.16,171.01 267.81,171.01 268.46,165.75 269.10,164.25 269.75,161.25 270.40,165.00 271.05,139.67 271.70,110.01 272.34,53.52 272.99,40.01 273.64,42.07 274.29,42.07 274.93,41.13 275.58,40.57 276.23,41.32 276.88,38.13 277.52,41.51 278.17,70.60 278.82,132.91 279.47,175.70 280.12,197.47 280.76,201.23 281.41,201.04 282.06,187.52 282.71,172.51 283.35,157.50 284.00,142.11 284.65,145.30 285.30,138.16 285.94,143.04 286.59,150.74 287.24,165.38 287.89,168.76 288.54,168.19 289.18,170.82 289.83,170.26 290.48,171.57 291.13,169.51 291.77,164.82 292.42,168.38 293.07,163.69 293.72,163.50 294.36,147.55 295.01,132.16 295.66,84.67 296.31,40.76 296.95,41.88 297.60,39.44 298.25,40.57 298.90,41.13 299.55,35.50 300.19,41.13 300.84,39.82 301.49,76.60 302.14,138.91 302.78,175.70 303.43,197.47 304.08,204.04 304.73,203.29 305.37,187.71 306.02,169.13 306.67,154.68 307.32,136.66 307.97,137.23 308.61,131.60 309.26,140.04 309.91,147.17 310.56,154.68 311.20,163.69 311.85,156.37 312.50,171.95 313.15,168.19 313.79,175.14 314.44,169.88 315.09,166.50 315.74,169.13 316.38,162.56 317.03,154.68 317.68,116.21 318.33,74.73 318.98,39.82 319.62,42.26 320.27,43.95 320.92,40.94 321.57,44.51 322.21,41.32 322.86,40.38 323.51,43.38 324.16,89.18 324.80,134.60 325.45,185.65 326.10,203.85 326.75,207.61 327.40,200.29 328.04,189.78 328.69,167.07 329.34,155.81 329.99,142.67 330.63,135.16 331.28,139.10 331.93,139.67 332.58,154.12 333.22,156.18 333.87,168.01 334.52,168.01 335.17,168.19 335.82,170.45 336.46,165.19 337.11,167.82 337.76,163.69 338.41,161.44 339.05,161.81 339.70,158.81 340.35,156.93 341.00,126.90 341.64,90.68 342.29,41.32 342.94,37.38 343.59,41.13 344.23,41.88 344.88,38.32 345.53,41.32 346.18,39.07 346.83,40.57 347.47,63.84 348.12,110.76 348.77,164.82 349.42,193.16 350.06,202.16 350.71,202.73 351.36,196.72 352.01,174.39 352.65,162.94 353.30,148.67 353.95,140.98 354.60,146.23 355.25,143.61 355.89,152.24 356.54,157.50 357.19,164.63 357.84,170.82 358.48,170.07 359.13,174.39 359.78,169.70 360.43,173.26 361.07,166.88 361.72,163.50 362.37,167.44 363.02,148.30 363.67,121.84 364.31,37.00 364.96,36.06 365.61,41.51 366.26,39.26 366.90,40.94 367.55,41.51 368.20,40.76 368.85,41.51 369.49,69.66 370.14,114.14 370.79,150.18 371.44,183.02 372.08,201.60 372.73,204.42 373.38,196.35 374.03,180.96 374.68,169.51 375.32,149.61 375.97,142.67 376.62,140.79 377.27,142.86 377.91,151.68 378.56,154.68 379.21,162.75 379.86,163.50 380.50,175.70 381.15,175.14 381.80,176.45 382.45,177.20 383.10,167.07 383.74,159.37 384.39,123.71 385.04,75.29 385.69,35.69 386.33,40.94 386.98,38.69 387.63,40.57 388.28,37.38 388.92,40.19 389.57,40.76 390.22,87.87 390.87,124.84 391.51,164.44 392.16,188.84 392.81,204.04 393.46,211.92 394.11,196.53 394.75,191.47 395.40,164.06 396.05,157.50 396.70,145.30 397.34,148.49 397.99,149.80 398.64,151.68 399.29,163.50 399.93,163.88 400.58,169.13 401.23,172.70 401.88,171.95 402.53,177.58 403.17,168.94 403.82,176.83 404.47,156.56 405.12,126.72 405.76,78.29 406.41,37.57 407.06,45.07 407.71,38.88 408.35,42.45 409.00,41.70 409.65,40.57 410.30,42.07 410.95,107.76 411.59,151.49 412.24,182.08 412.89,202.16 413.54,213.80 414.18,203.67 414.83,196.35 415.48,178.52 416.13,165.19 416.77,143.79 417.42,138.73 418.07,142.29 418.72,143.61 419.36,155.06 420.01,160.12 420.66,169.88 421.31,174.01 421.96,169.88 422.60,177.58 423.25,174.39 423.90,173.26 424.55,178.14 425.19,170.63 425.84,172.32 426.49,150.18 427.14,127.65 427.78,75.85 428.43,40.94 429.08,45.07 429.73,40.76 430.38,40.57 431.02,42.07 431.67,40.94 432.32,59.34 432.97,92.18 433.61,138.54 434.26,188.28 434.91,207.04 435.56,210.23 436.20,206.67 436.85,195.22 437.50,175.70 438.15,161.62 438.79,148.11 439.44,140.23 440.09,137.23 440.74,136.66 441.39,144.55 442.03,151.11 442.68,165.94 443.33,169.13 443.98,171.57 444.62,174.20 445.27,169.70 445.92,175.14 446.57,171.01 447.21,168.38 447.86,169.51 448.51,165.19 449.16,167.26 449.81,117.14 450.45,78.67 451.10,41.32 451.75,34.00 452.40,41.32 453.04,42.07 453.69,39.07 454.34,40.57 454.99,64.59 455.63,110.95 456.28,143.04 456.93,180.58 457.58,202.73 458.23,211.74 458.87,198.22 459.52,186.21 460.17,170.82 460.82,152.80 461.46,143.42 462.11,135.16 462.76,138.16 463.41,142.29 464.05,143.42 464.70,155.99 465.35,157.50 466.00,168.94 466.64,168.94 467.29,168.38 467.94,171.20 468.59,168.94 469.24,171.95 469.88,165.94 470.53,160.69 471.18,151.11 471.83,114.33 472.47,71.91 473.12,39.63 473.77,34.00 474.42,40.01 475.06,44.32 475.71,40.57 476.36,39.82 477.01,82.42 477.66,112.64 478.30,151.68 478.95,170.45 479.60,197.85 480.25,210.61 480.89,191.84 481.54,182.46 482.19,163.31 482.84,149.43 483.48,142.29 484.13,134.22 484.78,138.16 485.43,141.54 486.08,145.86 486.72,151.87 487.37,158.62 488.02,172.32 488.67,169.70 489.31,177.01 489.96,171.38 490.61,171.38 491.26,167.07 491.90,164.82 492.55,169.32 493.20,149.80 493.85,124.65 494.49,79.04 495.14,40.38 495.79,40.57 496.44,38.13 497.09,38.50 497.73,41.13 498.38,41.32 499.03,40.57 499.68,78.67 500.32,128.40 500.97,159.18 501.62,188.09 502.27,202.16 502.91,199.91 503.56,198.97 504.21,175.14 504.86,163.88 505.51,150.55 506.15,141.17 506.80,138.35 507.45,136.66 508.10,150.93 508.74,151.11 509.39,157.50 510.04,160.87 510.69,166.69 511.33,177.20 511.98,171.95 512.63,174.95 513.28,172.51 513.92,170.45 514.57,167.44 515.22,166.13 515.87,162.19 516.52,138.54 517.16,102.88 517.81,52.58 518.46,38.50 519.11,43.20 519.75,40.94 520.40,41.88 521.05,41.51 521.70,34.00 522.34,83.17 522.99,121.09 523.64,161.62 524.29,183.21 524.94,195.22 525.58,199.91 526.23,191.28 526.88,187.71 527.53,155.06 528.17,151.49 528.82,139.67 529.47,136.85 530.12,138.16 530.76,138.54 531.41,152.24 532.06,153.18 532.71,160.69 533.36,166.88 534.00,167.82 534.65,170.45 535.30,168.38 535.95,172.32 536.59,166.88 537.24,165.19 537.89,164.44 538.54,154.49 539.18,137.23 539.83,91.81 540.48,39.07 541.13,42.07 541.77,38.88 542.42,40.19 543.07,50.14 543.72,41.32 544.37,57.27 545.01,100.63 545.66,139.48 546.31,168.19 546.96,198.04 547.60,202.54 548.25,197.85 548.90,188.84 549.55,172.51 550.19,168.01 550.84,138.54 551.49,137.23 552.14,131.97 552.79,141.92 553.43,143.42 554.08,148.49 554.73,161.62 555.38,163.31 556.02,165.19 556.67,172.70 557.32,171.20 557.97,178.89 558.61,167.26 559.26,172.51 559.91,167.63 560.56,161.44 561.21,151.30 561.85,123.90 562.50,86.93 563.15,40.19 563.80,41.32 564.44,40.01 565.09,39.63 565.74,44.70 566.39,36.82 567.03,57.09 567.68,98.19 568.33,138.35 568.98,171.57 569.62,189.03 570.27,202.73 570.92,198.97 571.57,192.97 572.22,180.02 572.86,162.19 573.51,157.68 574.16,136.48 574.81,137.04 575.45,137.60 576.10,144.36 576.75,149.24 577.40,153.18 578.04,168.01 578.69,166.50 579.34,167.82 579.99,166.69 580.64,169.32 581.28,171.95 581.93,166.88 582.58,167.82 583.23,162.75 583.87,152.43 584.52,145.86 585.17,121.09 585.82,80.73 586.46,42.07 587.11,40.57 587.76,42.07 588.41,40.76 589.05,38.88 589.70,39.26 590.35,50.14 591.00,88.62 591.65,133.28 592.29,165.57 592.94,190.72 593.59,203.29 594.24,202.35 594.88,198.97 595.53,179.83 596.18,163.50 596.83,159.94 597.47,135.16 598.12,140.23 598.77,135.72 599.42,141.73 600.07,147.92 600.71,155.62 601.36,164.44 602.01,163.69 602.66,169.70 603.30,169.13 603.95,171.57 604.60,176.26 605.25,167.26 605.89,170.82 606.54,163.69 607.19,161.81 607.84,155.62 608.49,141.54 609.13,112.83 609.78,64.59 610.43,40.01 611.08,41.88 611.72,41.88 612.37,42.63 613.02,41.70 613.67,39.07 614.31,71.91 614.96,112.64 615.61,150.93 616.26,177.58 616.90,199.91 617.55,201.23 618.20,200.48 618.85,183.40 619.50,171.57 620.14,163.69 620.79,137.98 621.44,136.10 622.09,127.28 622.73,137.04 623.38,137.79 624.03,148.67 624.68,163.69 625.32,164.44 625.97,165.19 626.62,168.38 627.27,167.44 627.92,171.20 628.56,166.13 629.21,172.89 629.86,161.81 630.51,161.25 631.15,157.50 631.80,146.42 632.45,128.59 633.10,80.36 633.74,40.94 634.39,40.57 635.04,43.01 635.69,43.57 636.33,39.82 636.98,42.26 637.63,76.60 638.28,117.14 638.93,150.93 639.57,175.70 640.22,196.35 640.87,198.60 641.52,195.78 642.16,182.27 642.81,168.38 643.46,157.87 644.11,134.22 644.75,134.60 645.40,128.78 646.05,133.66 646.70,142.67 647.35,150.18 647.99,157.50 648.64,158.81 649.29,162.19 649.94,165.38 650.58,168.01 651.23,172.13 651.88,164.25 652.53,173.26 653.17,161.25 653.82,152.99 654.47,134.04 655.12,93.68 655.77,46.57 656.41,42.82 657.06,38.32 657.71,40.76 658.36,42.07 659.00,39.07 659.65,50.70 660.30,95.18 660.95,128.78 661.59,163.69 662.24,185.84 662.89,197.47 663.54,202.73 664.18,188.46 664.83,178.14 665.48,160.12 666.13,149.24 666.78,142.48 667.42,132.91 668.07,143.23 668.72,140.23 669.37,147.17 670.01,154.12 670.66,163.50 671.31,169.51 671.96,163.69 672.60,221.50 673.25,167.26 673.90,170.07 674.55,169.70 675.20,162.00 675.84,169.13 676.49,155.99 677.14,143.79 677.79,112.26 678.43,69.47 679.08,43.01 679.73,40.38 680.38,42.63 681.02,40.38 681.67,43.20 682.32,42.07 682.97,38.13 683.62,92.93 684.26,126.90 684.91,165.94 685.56,183.21 686.21,196.53 686.85,204.98 687.50,190.15 688.15,179.27 688.80,161.44 689.44,148.11 690.09,145.30 690.74,132.35 691.39,141.35 692.03,143.04 692.68,154.12 693.33,159.94 693.98,167.44 694.63,172.70 695.27,167.26 695.92,170.82 696.57,171.20 697.22,167.07 697.86,171.38 698.51,165.00 699.16,166.88 699.81,157.50 700.45,142.48 701.10,111.33 701.75,60.84 702.40,40.01 703.05,41.51 703.69,37.00 704.34,39.44 704.99,40.19 705.64,44.51 706.28,55.40 706.93,102.50 707.58,138.91 708.23,171.20 708.87,192.22 709.52,202.16 710.17,202.91 710.82,189.21 711.46,179.27 712.11,162.19 712.76,150.18 713.41,147.74 714.06,136.66 714.70,145.11 715.35,146.05 716.00,154.12 716.65,160.50 717.29,167.44 717.94,171.95 718.59,168.94 719.24,156.18 719.88,168.94 720.53,172.13 721.18,170.82 721.83,164.06 722.48,169.13 723.12,161.06 723.77,153.18 724.42,130.84 725.07,93.50 725.71,46.39 726.36,41.70 727.01,37.38 727.66,41.32 728.30,41.88 728.95,43.57 729.60,54.46 730.25,102.13 730.90,137.60 731.54,169.70 732.19,192.40 732.84,205.73 733.49,212.11 734.13,193.16 734.78,183.21 735.43,168.19 736.08,150.74 736.72,142.11 737.37,129.16 738.02,138.16 738.67,137.23 739.31,149.05 739.96,151.87 740.61,159.94 741.26,167.07 741.91,163.88 742.55,168.76 743.20,167.26 743.85,170.45 744.50,169.13 745.14,163.31 745.79,163.88 746.44,146.42 747.09,113.01 747.73,65.16 748.38,42.07 749.03,42.07 749.68,40.94 750.33,42.07 750.97,42.07 751.62,41.32 752.27,51.83 752.92,113.01 753.56,157.68 754.21,180.02 754.86,196.72 755.51,203.29 756.15,202.54 756.80,198.97 757.45,172.13 758.10,152.62 758.74,143.42 759.39,138.73 760.04,136.10 760.69,136.85 761.34,150.74 761.98,154.12 762.63,159.56 763.28,164.44 763.93,173.07 764.57,178.33 765.22,167.26 765.87,170.07 766.52,166.32 767.16,166.69 767.81,171.76 768.46,160.12 769.11,140.42 769.76,99.13 770.40,46.57 771.05,40.01 771.70,40.19 772.35,38.13 772.99,39.26 773.64,41.88 774.29,41.32 774.94,34.00 775.58,88.05 776.23,137.41 776.88,176.26 777.53,192.59 778.18,203.10 778.82,201.23 779.47,192.22 780.12,179.83 780.77,158.62 781.41,149.99 782.06,140.42 782.71,137.41 783.36,140.60 784.00,147.74 784.65,162.94 785.30,163.31 785.95,166.69 786.59,168.57 787.24,171.01 787.89,178.14 788.54,169.51 789.19,169.51 789.83,167.82 790.48,167.63 791.13,162.94 791.78,127.84 792.42,86.93 793.07,40.19 793.72,42.26 794.37,43.38 795.01,34.00 795.66,37.38 796.31,42.07 796.96,40.76 797.61,42.45 798.25,92.37 798.90,135.35 799.55,181.14 800.20,203.29 800.84,204.04 801.49,198.97 802.14,184.52 802.79,171.57 803.43,160.87 804.08,142.11 804.73,142.29 805.38,140.60 806.03,143.98 806.67,149.80 807.32,159.75 807.97,172.89 808.62,168.38 809.26,175.51 809.91,172.89 810.56,173.45 811.21,175.70 811.85,169.13 812.50,168.19 813.15,162.56 813.80,160.87 814.44,156.93 815.09,116.21 815.74,81.30 816.39,41.51 817.04,38.88 817.68,41.88 818.33,38.50 818.98,35.50 819.63,41.32 820.27,40.19 820.92,69.10 821.57,116.02 822.22,161.06 822.86,193.53 823.51,204.79 824.16,199.72 824.81,192.03 825.46,175.70 826.10,163.69 826.75,154.87 827.40,136.66 828.05,139.85 828.69,137.04 829.34,146.61 829.99,154.12 830.64,159.56 831.28,167.44 831.93,168.19 832.58,175.89 833.23,171.76 833.87,174.95 834.52,172.51 835.17,167.63 835.82,167.07 836.47,161.62 837.11,156.18 837.76,140.04 838.41,86.18 839.06,39.07 839.70,40.94 840.35,42.45 841.00,38.13 841.65,41.51 842.29,38.50 842.94,40.38 843.59,82.99 844.24,122.77 844.89,162.19 845.53,188.28 846.18,202.54 846.83,204.60 847.48,185.46 848.12,174.76 848.77,154.87 849.42,144.17 850.07,138.73 850.71,131.22 851.36,137.04 852.01,136.48 852.66,144.73 853.31,162.19 853.95,162.75 854.60,167.26 855.25,165.57 855.90,171.20 856.54,169.70 857.19,168.19 857.84,169.32 858.49,163.13 859.13,150.18 859.78,118.08 860.43,78.86 861.08,39.07 861.72,41.51 862.37,40.38 863.02,39.82 863.67,41.32 864.32,41.32 864.96,62.15 865.61,103.63 866.26,138.73 866.91,172.51 867.55,192.22 868.20,201.23 868.85,199.72 869.50,183.21 870.14,172.70 870.79,150.18 871.44,145.67 872.09,133.47 872.74,136.66 873.38,141.92 874.03,141.92 874.68,154.12 875.33,156.93 875.97,166.50 876.62,174.76 877.27,170.26 877.92,173.82 878.56,169.51 879.21,175.14 879.86,164.63 880.51,160.69 881.15,143.23 881.80,97.25 882.45,45.07 883.10,39.82 883.75,39.63 884.39,37.94 885.04,41.51 885.69,46.20 886.34,38.50 886.98,62.15 887.63,103.26 888.28,144.36 888.93,180.77 889.57,195.22 890.22,204.98 890.87,204.23 891.52,195.22 892.17,182.27 892.81,157.31 893.46,154.68 894.11,139.67 894.76,143.42 895.40,143.23 896.05,152.24 896.70,155.62 897.35,159.18 897.99,168.19 898.64,168.76 899.29,169.70 899.94,179.64 900.59,168.94 901.23,166.69 901.88,146.23 902.53,112.83 903.18,53.14 903.82,40.38 904.47,37.38 905.12,40.19 905.77,43.01 906.41,40.94 907.06,37.38 907.71,51.08 908.36,117.14 909.00,161.25 909.65,189.21 910.30,210.05 910.95,211.17 911.60,207.98 912.24,200.85 912.89,178.70 913.54,168.76 914.19,151.68 914.83,145.86 915.48,143.04 916.13,142.29 916.78,149.99 917.42,150.93 918.07,160.50 918.72,162.19 919.37,167.07 920.02,170.26 920.66,166.50 921.31,170.63 921.96,144.55 922.61,116.39 923.25,72.66 923.90,40.76 924.55,37.94 925.20,41.88 925.84,41.32 926.49,40.76 927.14,61.59 927.79,102.50 928.44,135.91 929.08,170.82 929.73,191.84 930.38,207.79 931.03,210.61 931.67,199.72 932.32,188.09 932.97,168.94 933.62,162.94 934.26,145.67 934.91,146.80 935.56,145.48 936.21,141.92 936.85,154.12 937.50,153.18 938.15,160.69 938.80,165.94 939.45,172.51 940.09,171.20 940.74,168.57 941.39,159.00 942.04,124.65 942.68,83.36 943.33,41.32 943.98,40.76 944.63,43.20 945.27,40.38 945.92,41.70 946.57,39.44 947.22,94.81 947.87,137.41 948.51,172.13 949.16,226.00 949.81,207.23 950.46,214.36 951.10,202.91 951.75,187.71 952.40,175.51 953.05,158.81 953.69,147.92 954.34,140.60 954.99,137.98 955.64,140.98 956.28,142.67 956.93,155.24 957.58,158.06 958.23,163.50 958.88,168.19 959.52,164.63 960.17,168.57 960.82,152.80 961.47,129.34 962.11,87.11 962.76,39.07 963.41,40.76 964.06,40.57 964.70,43.01 965.35,39.07 966.00,42.07"/>
</svg>
