<svg xmlns="http://www.w3.org/2000/svg" width="1000" height="260" viewBox="0 0 1000 260">
  <rect width="100%" height="100%" fill="#0b0f14"/>
  <text x="34" y="22" fill="#f4f7fb" font-family="monospace" font-size="16">none_unplugged</text>
  <polyline fill="none" stroke="#31d4ff" stroke-width="1.5" points="34.00,226.00 35.95,226.00 37.89,226.00 39.84,223.56 41.78,225.25 43.73,213.43 45.67,226.00 47.62,226.00 49.57,225.25 51.51,217.74 53.46,223.56 55.40,226.00 57.35,226.00 59.29,220.74 61.24,220.56 63.19,215.68 65.13,226.00 67.08,226.00 69.02,226.00 70.97,226.00 72.91,224.31 74.86,219.99 76.81,213.99 78.75,226.00 80.70,226.00 82.64,225.44 84.59,218.87 86.53,224.87 88.48,225.81 90.43,226.00 92.37,226.00 94.32,226.00 96.26,225.44 98.21,223.37 100.15,226.00 102.10,226.00 104.05,226.00 105.99,223.56 107.94,219.24 109.88,216.80 111.83,226.00 113.77,226.00 115.72,226.00 117.67,226.00 119.61,223.00 121.56,222.62 123.50,224.69 125.45,226.00 127.39,226.00 129.34,223.00 131.29,220.93 133.23,223.00 135.18,226.00 137.12,226.00 139.07,226.00 141.01,226.00 142.96,226.00 144.91,217.37 146.85,217.93 148.80,226.00 150.74,226.00 152.69,222.25 154.63,220.74 156.58,219.81 158.53,226.00 160.47,225.44 162.42,226.00 164.36,226.00 166.31,225.44 168.25,214.55 170.20,217.55 172.15,226.00 174.09,226.00 176.04,225.81 177.98,215.87 179.93,226.00 181.87,226.00 183.82,226.00 185.77,226.00 187.71,226.00 189.66,220.93 191.60,210.99 193.55,226.00 195.49,226.00 197.44,225.62 199.39,223.00 201.33,219.81 203.28,219.06 205.22,226.00 207.17,226.00 209.11,226.00 211.06,226.00 213.01,225.25 214.95,221.31 216.90,223.75 218.84,226.00 220.79,226.00 222.73,222.25 224.68,220.18 226.63,220.56 228.57,226.00 230.52,226.00 232.46,226.00 234.41,223.75 236.35,222.06 238.30,214.55 240.25,226.00 242.19,226.00 244.14,226.00 246.08,222.06 248.03,219.43 249.97,223.75 251.92,226.00 253.87,226.00 255.81,226.00 257.76,226.00 259.70,221.68 261.65,219.99 263.59,225.25 265.54,226.00 267.49,223.18 269.43,224.12 271.38,217.93 273.32,226.00 275.27,226.00 277.22,226.00 279.16,226.00 281.11,223.56 283.05,222.06 285.00,221.68 286.94,226.00 288.89,226.00 290.84,226.00 292.78,220.74 294.73,217.74 296.67,226.00 298.62,226.00 300.56,226.00 302.51,226.00 304.46,226.00 306.40,219.81 308.35,217.18 310.29,226.00 312.24,226.00 314.18,220.93 316.13,220.56 318.08,213.99 320.02,225.25 321.97,226.00 323.91,226.00 325.86,226.00 327.80,226.00 329.75,223.75 331.70,219.24 333.64,223.56 335.59,226.00 337.53,226.00 339.48,222.25 341.42,220.74 343.37,226.00 345.32,225.81 347.26,225.81 349.21,226.00 351.15,222.06 353.10,223.75 355.04,213.24 356.99,226.00 358.94,226.00 360.88,222.43 362.83,223.56 364.77,220.37 366.72,224.12 368.66,226.00 370.61,221.50 372.56,226.00 374.50,219.81 376.45,220.74 378.39,219.24 380.34,226.00 382.28,226.00 384.23,226.00 386.18,220.37 388.12,220.37 390.07,226.00 392.01,226.00 393.96,226.00 395.90,226.00 397.85,226.00 399.80,223.75 401.74,220.74 403.69,224.31 405.63,226.00 407.58,225.06 409.52,225.62 411.47,220.93 413.42,225.25 415.36,226.00 417.31,226.00 419.25,226.00 421.20,221.31 423.14,223.37 425.09,219.24 427.04,226.00 428.98,226.00 430.93,225.44 432.87,224.31 434.82,222.25 436.76,226.00 438.71,226.00 440.66,226.00 442.60,226.00 444.55,226.00 446.49,222.81 448.44,212.67 450.38,226.00 452.33,226.00 454.28,225.44 456.22,222.06 458.17,224.87 460.11,226.00 462.06,226.00 464.00,225.25 465.95,226.00 467.90,223.00 469.84,222.81 471.79,219.99 473.73,226.00 475.68,226.00 477.62,222.25 479.57,222.81 481.52,217.74 483.46,226.00 485.41,226.00 487.35,226.00 489.30,224.69 491.24,226.00 493.19,223.94 495.14,219.06 497.08,226.00 499.03,226.00 500.97,222.25 502.92,223.56 504.86,219.81 506.81,226.00 508.76,226.00 510.70,226.00 512.65,226.00 514.59,226.00 516.54,220.74 518.48,212.11 520.43,226.00 522.38,226.00 524.32,226.00 526.27,225.06 528.21,219.99 530.16,226.00 532.10,226.00 534.05,226.00 536.00,226.00 537.94,221.31 539.89,222.43 541.83,217.18 543.78,226.00 545.72,226.00 547.67,226.00 549.62,226.00 551.56,214.74 553.51,226.00 555.45,226.00 557.40,226.00 559.34,226.00 561.29,223.75 563.24,223.00 565.18,215.30 567.13,226.00 569.07,226.00 571.02,226.00 572.96,222.25 574.91,214.36 576.86,226.00 578.80,226.00 580.75,222.06 582.69,226.00 584.64,226.00 586.58,224.50 588.53,219.43 590.48,226.00 592.42,226.00 594.37,226.00 596.31,222.43 598.26,217.74 600.20,226.00 602.15,226.00 604.10,226.00 606.04,226.00 607.99,226.00 609.93,224.50 611.88,220.74 613.82,226.00 615.77,226.00 617.72,226.00 619.66,226.00 621.61,223.75 623.55,226.00 625.50,226.00 627.44,224.12 629.39,226.00 631.34,226.00 633.28,222.81 635.23,210.23 637.17,226.00 639.12,226.00 641.06,225.62 643.01,221.50 644.96,219.24 646.90,226.00 648.85,226.00 650.79,225.25 652.74,226.00 654.68,226.00 656.63,224.50 658.58,226.00 660.52,226.00 662.47,226.00 664.41,224.12 666.36,223.75 668.30,221.31 670.25,226.00 672.20,226.00 674.14,225.25 676.09,226.00 678.03,226.00 679.98,223.75 681.92,216.99 683.87,226.00 685.82,226.00 687.76,225.62 689.71,221.87 691.65,218.68 693.60,226.00 695.54,226.00 697.49,223.94 699.44,226.00 701.38,221.12 703.33,223.56 705.27,219.06 707.22,226.00 709.16,226.00 711.11,219.99 713.06,226.00 715.00,218.68 716.95,226.00 718.89,226.00 720.84,222.25 722.78,226.00 724.73,226.00 726.68,223.56 728.62,213.24 730.57,226.00 732.51,226.00 734.46,226.00 736.41,219.99 738.35,222.25 740.30,226.00 742.24,226.00 744.19,222.62 746.13,226.00 748.08,224.31 750.03,225.25 751.97,224.87 753.92,226.00 755.86,226.00 757.81,226.00 759.75,222.81 761.70,226.00 763.65,226.00 765.59,226.00 767.54,225.81 769.48,226.00 771.43,221.12 773.37,222.25 775.32,216.62 777.27,225.81 779.21,226.00 781.16,226.00 783.10,225.81 785.05,224.12 786.99,226.00 788.94,225.81 790.89,223.00 792.83,226.00 794.78,223.94 796.72,221.31 798.67,215.49 800.61,226.00 802.56,226.00 804.51,226.00 806.45,219.81 808.40,222.06 810.34,226.00 812.29,226.00 814.23,220.56 816.18,226.00 818.13,223.75 820.07,223.00 822.02,216.43 823.96,226.00 825.91,226.00 827.85,223.37 829.80,223.94 831.75,220.37 833.69,226.00 835.64,226.00 837.58,226.00 839.53,226.00 841.47,222.43 843.42,223.00 845.37,223.75 847.31,226.00 849.26,226.00 851.20,222.43 853.15,218.68 855.09,222.25 857.04,226.00 858.99,226.00 860.93,222.06 862.88,219.81 864.82,224.12 866.77,221.50 868.71,225.44 870.66,226.00 872.61,226.00 874.55,223.18 876.50,224.87 878.44,222.25 880.39,226.00 882.33,226.00 884.28,226.00 886.23,222.81 888.17,222.81 890.12,214.74 892.06,220.37 894.01,226.00 895.95,226.00 897.90,223.18 899.85,223.75 901.79,225.44 903.74,226.00 905.68,226.00 907.63,222.81 909.57,226.00 911.52,224.31 913.47,220.74 915.41,226.00 917.36,226.00 919.30,226.00 921.25,221.31 923.19,225.25 925.14,222.25 927.09,226.00 929.03,226.00 930.98,222.25 932.92,226.00 934.87,226.00 936.81,220.74 938.76,225.44 940.71,226.00 942.65,226.00 944.60,226.00 946.54,223.00 948.49,222.81 950.43,226.00 952.38,226.00 954.33,224.50 956.27,226.00 958.22,225.25 960.16,217.74 962.11,220.74 964.05,226.00 966.00,226.00"/>
</svg>
