<svg xmlns="http://www.w3.org/2000/svg" width="1000" height="260" viewBox="0 0 1000 260">
  <rect width="100%" height="100%" fill="#0b0f14"/>
  <text x="34" y="22" fill="#f4f7fb" font-family="monospace" font-size="16">finger_connected</text>
  <polyline fill="none" stroke="#31d4ff" stroke-width="1.5" points="34.00,118.65 34.65,128.40 35.30,137.98 35.94,149.99 36.59,145.11 37.24,145.11 37.89,143.98 38.54,138.73 39.18,141.73 39.83,142.67 40.48,139.29 41.13,138.35 41.78,132.35 42.43,136.66 43.07,139.85 43.72,136.29 44.37,138.91 45.02,142.29 45.67,141.73 46.31,137.23 46.96,143.79 47.61,141.17 48.26,140.42 48.91,135.16 49.55,123.52 50.20,122.59 50.85,111.70 51.50,110.76 52.15,109.45 52.80,116.77 53.44,123.52 54.09,126.90 54.74,140.42 55.39,144.17 56.04,146.99 56.68,147.17 57.33,141.92 57.98,151.11 58.63,146.80 59.28,145.86 59.92,139.67 60.57,142.11 61.22,137.23 61.87,133.85 62.52,142.67 63.17,140.42 63.81,138.91 64.46,137.98 65.11,137.23 65.76,141.73 66.41,145.86 67.05,144.73 67.70,142.67 68.35,134.97 69.00,129.16 69.65,119.40 70.29,115.64 70.94,112.45 71.59,112.64 72.24,116.58 72.89,114.89 73.54,127.65 74.18,133.66 74.83,138.16 75.48,143.23 76.13,146.99 76.78,149.24 77.42,143.61 78.07,148.86 78.72,144.92 79.37,142.11 80.02,143.42 80.66,135.16 81.31,140.42 81.96,139.67 82.61,139.29 83.26,137.60 83.91,141.92 84.55,145.11 85.20,138.54 85.85,140.04 86.50,143.23 87.15,140.42 87.79,139.85 88.44,137.41 89.09,138.16 89.74,129.16 90.39,118.46 91.03,111.70 91.68,112.83 92.33,113.95 92.98,116.58 93.63,129.34 94.28,133.85 94.92,135.54 95.57,140.79 96.22,141.17 96.87,145.67 97.52,146.42 98.16,146.42 98.81,145.30 99.46,143.98 100.11,139.10 100.76,134.41 101.40,143.98 102.05,138.16 102.70,131.97 103.35,132.53 104.00,132.16 104.65,143.23 105.29,140.60 105.94,138.73 106.59,139.29 107.24,141.17 107.89,137.60 108.53,138.35 109.18,141.92 109.83,138.54 110.48,133.66 111.13,123.15 111.77,116.21 112.42,114.89 113.07,115.45 113.72,114.14 114.37,119.40 115.02,123.90 115.66,130.47 116.31,134.97 116.96,143.98 117.61,141.73 118.26,144.92 118.90,138.91 119.55,140.04 120.20,143.61 120.85,142.86 121.50,135.35 122.14,138.16 122.79,134.22 123.44,128.78 124.09,133.66 124.74,137.04 125.39,137.41 126.03,133.66 126.68,130.09 127.33,133.10 127.98,146.61 128.63,139.67 129.27,137.41 129.92,138.16 130.57,139.67 131.22,133.10 131.87,131.60 132.51,133.85 133.16,121.27 133.81,116.96 134.46,108.70 135.11,116.58 135.76,126.15 136.40,127.65 137.05,127.65 137.70,139.67 138.35,143.23 139.00,141.92 139.64,144.17 140.29,149.99 140.94,145.30 141.59,146.80 142.24,138.16 142.88,142.48 143.53,144.55 144.18,139.48 144.83,137.41 145.48,138.16 146.13,140.60 146.77,136.66 147.42,143.79 148.07,147.92 148.72,144.36 149.37,139.85 150.01,137.41 150.66,139.67 151.31,148.67 151.96,144.92 152.61,138.73 153.25,128.59 153.90,126.15 154.55,116.77 155.20,114.33 155.85,121.84 156.50,123.15 157.14,128.03 157.79,131.03 158.44,139.67 159.09,144.73 159.74,150.36 160.38,147.36 161.03,146.23 161.68,146.23 162.33,138.73 162.98,141.35 163.62,148.11 164.27,142.29 164.92,139.67 165.57,132.16 166.22,136.66 166.87,140.60 167.51,140.42 168.16,142.86 168.81,137.79 169.46,143.98 170.11,134.04 170.75,139.67 171.40,140.98 172.05,137.98 172.70,140.79 173.35,122.59 173.99,119.77 174.64,121.46 175.29,111.33 175.94,114.14 176.59,116.39 177.24,121.27 177.88,123.34 178.53,136.48 179.18,145.11 179.83,145.48 180.48,143.23 181.12,139.67 181.77,143.98 182.42,145.67 183.07,143.79 183.72,141.54 184.36,140.42 185.01,140.98 185.66,135.35 186.31,137.04 186.96,143.61 187.61,141.35 188.25,140.60 188.90,135.35 189.55,137.60 190.20,144.17 190.85,144.73 191.49,141.73 192.14,143.23 192.79,144.55 193.44,136.85 194.09,133.85 194.73,132.91 195.38,126.72 196.03,124.28 196.68,115.27 197.33,120.15 197.97,128.22 198.62,135.16 199.27,136.29 199.92,145.11 200.57,147.36 201.22,145.67 201.86,148.67 202.51,157.68 203.16,151.68 203.81,143.04 204.46,137.23 205.10,139.85 205.75,144.36 206.40,139.67 207.05,134.41 207.70,139.10 208.34,142.11 208.99,137.60 209.64,144.55 210.29,144.36 210.94,144.17 211.59,140.98 212.23,137.04 212.88,140.79 213.53,142.67 214.18,140.04 214.83,132.35 215.47,122.02 216.12,118.27 216.77,113.20 217.42,117.33 218.07,122.40 218.71,127.84 219.36,134.22 220.01,130.66 220.66,140.04 221.31,144.92 221.96,147.36 222.60,147.92 223.25,143.04 223.90,147.36 224.55,136.10 225.20,139.67 225.84,139.10 226.49,135.91 227.14,133.66 227.79,129.16 228.44,136.10 229.08,140.23 229.73,138.35 230.38,137.98 231.03,136.29 231.68,141.54 232.33,145.67 232.97,139.48 233.62,137.98 234.27,127.65 234.92,128.59 235.57,126.53 236.21,119.21 236.86,116.39 237.51,110.57 238.16,121.09 238.81,121.27 239.45,128.97 240.10,139.67 240.75,140.60 241.40,144.92 242.05,139.48 242.70,142.11 243.34,145.86 243.99,144.73 244.64,139.67 245.29,134.41 245.94,136.29 246.58,130.66 247.23,136.10 247.88,143.04 248.53,136.29 249.18,136.66 249.82,132.91 250.47,134.60 251.12,144.92 251.77,139.85 252.42,132.35 253.07,133.10 253.71,135.35 254.36,127.09 255.01,126.15 255.66,127.28 256.31,120.15 256.95,113.58 257.60,112.26 258.25,118.46 258.90,124.84 259.55,127.09 260.19,134.60 260.84,133.85 261.49,143.04 262.14,138.91 262.79,149.61 263.44,149.24 264.08,147.36 264.73,143.04 265.38,133.47 266.03,138.54 266.68,142.86 267.32,139.67 267.97,138.54 268.62,133.66 269.27,138.73 269.92,131.78 270.56,137.41 271.21,145.30 271.86,141.35 272.51,141.54 273.16,135.91 273.81,132.35 274.45,136.66 275.10,124.65 275.75,122.59 276.40,112.45 277.05,110.39 277.69,111.14 278.34,123.90 278.99,130.66 279.64,135.91 280.29,139.48 280.93,135.91 281.58,141.73 282.23,146.61 282.88,145.30 283.53,142.11 284.18,135.72 284.82,139.10 285.47,129.34 286.12,134.97 286.77,137.23 287.42,135.16 288.06,142.11 288.71,134.04 289.36,133.66 290.01,140.60 290.66,140.42 291.30,138.73 291.95,138.16 292.60,141.17 293.25,130.09 293.90,131.60 294.55,130.84 295.19,117.71 295.84,113.58 296.49,108.70 297.14,109.64 297.79,122.02 298.43,123.15 299.08,130.66 299.73,131.78 300.38,140.23 301.03,136.66 301.67,143.61 302.32,152.05 302.97,143.98 303.62,139.67 304.27,134.97 304.92,136.48 305.56,135.54 306.21,136.29 306.86,132.72 307.51,128.03 308.16,132.35 308.80,133.66 309.45,138.54 310.10,142.86 310.75,141.17 311.40,146.42 312.04,135.91 312.69,136.66 313.34,137.04 313.99,130.84 314.64,125.96 315.29,114.52 315.93,110.95 316.58,106.63 317.23,113.58 317.88,125.21 318.53,127.09 319.17,131.22 319.82,131.22 320.47,142.48 321.12,144.92 321.77,143.23 322.41,143.98 323.06,135.54 323.71,136.66 324.36,127.65 325.01,137.23 325.66,134.60 326.30,134.41 326.95,134.79 327.60,130.09 328.25,130.84 328.90,136.29 329.54,137.41 330.19,138.73 330.84,133.85 331.49,136.66 332.14,133.66 332.78,142.11 333.43,139.29 334.08,133.47 334.73,129.16 335.38,116.96 336.03,115.83 336.67,111.70 337.32,113.39 337.97,116.02 338.62,117.52 339.27,124.46 339.91,130.66 340.56,136.29 341.21,143.42 341.86,143.23 342.51,141.73 343.15,134.97 343.80,136.85 344.45,137.98 345.10,135.35 345.75,137.23 346.39,130.66 347.04,130.66 347.69,129.72 348.34,132.16 348.99,136.66 349.64,137.60 350.28,134.79 350.93,129.72 351.58,133.66 352.23,136.85 352.88,137.04 353.52,133.47 354.17,127.09 354.82,129.16 355.47,113.01 356.12,117.89 356.76,113.58 357.41,111.51 358.06,110.39 358.71,111.14 359.36,119.21 360.01,128.97 360.65,134.41 361.30,136.48 361.95,135.16 362.60,142.29 363.25,135.16 363.89,141.92 364.54,142.11 365.19,135.16 365.84,135.91 366.49,125.96 367.13,129.34 367.78,135.54 368.43,132.72 369.08,131.97 369.73,129.16 370.38,134.22 371.02,131.97 371.67,139.85 372.32,140.60 372.97,139.48 373.62,133.47 374.26,125.40 374.91,121.65 375.56,114.33 376.21,109.64 376.86,106.07 377.50,103.07 378.15,114.52 378.80,116.39 379.45,132.91 380.10,136.66 380.75,139.29 381.39,142.29 382.04,140.98 382.69,144.36 383.34,144.36 383.99,138.54 384.63,135.16 385.28,133.28 385.93,138.35 386.58,131.41 387.23,135.91 387.87,138.54 388.52,137.79 389.17,137.60 389.82,134.97 390.47,138.91 391.12,143.79 391.76,140.42 392.41,138.54 393.06,132.16 393.71,134.97 394.36,114.14 395.00,110.20 395.65,110.20 396.30,111.33 396.95,114.70 397.60,113.20 398.24,121.65 398.89,131.03 399.54,136.66 400.19,143.61 400.84,140.23 401.49,146.23 402.13,138.35 402.78,140.60 403.43,142.29 404.08,138.16 404.73,133.85 405.37,129.16 406.02,132.35 406.67,134.41 407.32,137.41 407.97,137.41 408.61,132.16 409.26,136.10 409.91,135.16 410.56,145.67 411.21,145.11 411.86,142.67 412.50,143.04 413.15,130.66 413.80,129.16 414.45,122.96 415.10,113.39 415.74,111.33 416.39,104.94 417.04,111.89 417.69,113.77 418.34,126.15 418.98,136.48 419.63,138.35 420.28,144.73 420.93,140.98 421.58,147.17 422.23,146.99 422.87,143.04 423.52,142.29 424.17,132.16 424.82,135.72 425.47,130.47 426.11,134.97 426.76,139.10 427.41,131.97 428.06,138.16 428.71,139.10 429.35,141.73 430.00,145.67 430.65,142.11 431.30,137.23 431.95,135.91 432.60,136.48 433.24,125.03 433.89,122.96 434.54,120.52 435.19,111.70 435.84,110.39 436.48,106.07 437.13,118.08 437.78,124.65 438.43,129.72 439.08,134.41 439.72,137.79 440.37,146.05 441.02,142.11 441.67,146.05 442.32,148.67 442.97,142.29 443.61,135.35 444.26,134.04 444.91,137.04 445.56,137.23 446.21,135.91 446.85,135.16 447.50,133.66 448.15,142.86 448.80,135.54 449.45,141.73 450.09,147.74 450.74,143.98 451.39,142.86 452.04,130.66 452.69,127.84 453.34,123.90 453.98,115.83 454.63,107.57 455.28,107.01 455.93,112.08 456.58,118.65 457.22,129.34 457.87,139.67 458.52,142.48 459.17,143.79 459.82,141.17 460.46,145.86 461.11,146.99 461.76,145.67 462.41,137.04 463.06,133.66 463.71,133.10 464.35,128.03 465.00,137.60 465.65,139.10 466.30,137.23 466.95,137.98 467.59,135.35 468.24,147.17 468.89,143.98 469.54,143.79 470.19,138.35 470.83,133.85 471.48,132.91 472.13,112.08 472.78,111.89 473.43,111.33 474.08,112.45 474.72,112.64 475.37,115.64 476.02,130.09 476.67,134.60 477.32,137.98 477.96,140.23 478.61,141.54 479.26,145.67 479.91,140.98 480.56,141.73 481.20,141.92 481.85,136.66 482.50,135.91 483.15,130.09 483.80,136.85 484.45,133.66 485.09,136.48 485.74,133.66 486.39,132.16 487.04,138.16 487.69,135.91 488.33,141.92 488.98,143.04 489.63,142.29 490.28,134.60 490.93,120.15 491.57,114.89 492.22,112.83 492.87,108.13 493.52,106.07 494.17,110.01 494.82,120.33 495.46,126.72 496.11,137.41 496.76,144.17 497.41,144.55 498.06,142.48 498.70,141.54 499.35,139.29 500.00,139.67 500.65,144.92 501.30,130.66 501.94,125.78 502.59,130.66 503.24,127.65 503.89,139.85 504.54,138.16 505.18,141.17 505.83,145.30 506.48,132.72 507.13,140.04 507.78,143.04 508.43,149.61 509.07,140.42 509.72,131.60 510.37,128.40 511.02,109.45 511.67,111.14 512.31,107.76 512.96,109.64 513.61,117.14 514.26,115.64 514.91,127.84 515.55,133.47 516.20,136.66 516.85,140.04 517.50,139.67 518.15,145.67 518.80,139.29 519.44,146.80 520.09,139.48 520.74,138.73 521.39,134.41 522.04,127.65 522.68,139.67 523.33,135.16 523.98,135.72 524.63,136.85 525.28,134.41 525.92,145.48 526.57,135.91 527.22,147.92 527.87,143.04 528.52,154.12 529.17,135.72 529.81,130.09 530.46,122.77 531.11,113.95 531.76,106.07 532.41,103.63 533.05,101.19 533.70,115.64 534.35,116.02 535.00,135.91 535.65,141.35 536.29,141.73 536.94,145.30 537.59,141.35 538.24,147.92 538.89,143.98 539.54,140.23 540.18,135.91 540.83,131.22 541.48,143.23 542.13,129.16 542.78,140.04 543.42,140.04 544.07,141.35 544.72,136.29 545.37,137.79 546.02,146.05 546.66,143.04 547.31,146.23 547.96,139.67 548.61,138.91 549.26,143.42 549.91,130.28 550.55,129.72 551.20,118.65 551.85,112.45 552.50,101.19 553.15,99.31 553.79,112.08 554.44,114.14 555.09,121.65 555.74,127.84 556.39,134.97 557.03,143.42 557.68,141.35 558.33,149.61 558.98,150.18 559.63,146.23 560.28,142.11 560.92,137.41 561.57,143.79 562.22,137.41 562.87,138.73 563.52,131.97 564.16,133.10 564.81,141.17 565.46,134.79 566.11,144.55 566.76,144.73 567.40,145.30 568.05,139.67 568.70,138.16 569.35,140.04 570.00,139.10 570.65,136.66 571.29,131.97 571.94,134.04 572.59,136.10 573.24,117.14 573.89,124.46 574.53,109.64 575.18,108.70 575.83,102.13 576.48,108.13 577.13,122.02 577.77,127.09 578.42,131.41 579.07,131.97 579.72,135.16 580.37,139.67 581.02,134.60 581.66,143.04 582.31,151.68 582.96,163.13 583.61,170.26 584.26,181.33 584.90,189.96 585.55,194.47 586.20,195.22 586.85,195.22 587.50,193.53 588.14,201.98 588.79,180.21 589.44,186.40 590.09,180.96 590.74,175.89 591.39,176.45 592.03,168.38 592.68,177.20 593.33,176.64 593.98,173.07 594.63,171.57 595.27,166.32 595.92,171.57 596.57,162.19 597.22,163.69 597.87,165.19 598.51,154.12 599.16,142.48 599.81,129.34 600.46,134.97 601.11,135.35 601.76,139.10 602.40,147.92 603.05,159.18 603.70,177.39 604.35,199.16 605.00,223.56 605.64,226.00 606.29,226.00 606.94,223.56 607.59,204.42 608.24,184.71 608.88,171.57 609.53,158.06 610.18,147.55 610.83,140.23 611.48,150.36 612.13,142.48 612.77,150.18 613.42,146.42 614.07,137.98 614.72,134.60 615.37,131.41 616.01,152.62 616.66,144.36 617.31,147.17 617.96,144.17 618.61,140.42 619.25,146.05 619.90,130.84 620.55,142.67 621.20,136.10 621.85,130.84 622.50,130.47 623.14,128.22 623.79,132.16 624.44,132.53 625.09,127.09 625.74,117.14 626.38,99.50 627.03,88.99 627.68,76.04 628.33,88.62 628.98,95.75 629.62,106.26 630.27,106.07 630.92,110.57 631.57,122.40 632.22,120.71 632.87,119.21 633.51,116.02 634.16,119.21 634.81,123.90 635.46,121.84 636.11,133.85 636.75,138.54 637.40,136.85 638.05,138.16 638.70,134.60 639.35,140.04 639.99,136.66 640.64,134.41 641.29,131.03 641.94,128.22 642.59,134.22 643.24,126.90 643.88,131.97 644.53,133.47 645.18,134.79 645.83,131.97 646.48,128.78 647.12,134.41 647.77,134.22 648.42,131.03 649.07,118.65 649.72,114.14 650.36,111.14 651.01,94.06 651.66,99.13 652.31,94.81 652.96,101.19 653.61,100.63 654.25,109.64 654.90,126.15 655.55,125.03 656.20,131.22 656.85,128.03 657.49,132.16 658.14,137.41 658.79,129.16 659.44,125.21 660.09,130.28 660.73,130.66 661.38,122.77 662.03,120.33 662.68,127.09 663.33,128.97 663.97,129.34 664.62,124.09 665.27,128.59 665.92,134.60 666.57,133.10 667.22,137.23 667.86,137.04 668.51,137.98 669.16,127.84 669.81,131.03 670.46,134.79 671.10,135.35 671.75,132.91 672.40,130.28 673.05,127.84 673.70,132.91 674.34,118.65 674.99,115.83 675.64,106.45 676.29,100.25 676.94,94.25 677.59,90.30 678.23,102.69 678.88,109.64 679.53,114.14 680.18,115.45 680.83,120.33 681.47,135.16 682.12,128.97 682.77,137.79 683.42,133.28 684.07,132.35 684.71,128.40 685.36,125.03 686.01,130.84 686.66,129.53 687.31,127.84 687.96,121.84 688.60,124.28 689.25,133.10 689.90,127.65 690.55,136.66 691.20,136.66 691.84,135.35 692.49,134.97 693.14,132.91 693.79,142.67 694.44,134.97 695.08,132.35 695.73,131.41 696.38,130.84 697.03,139.67 697.68,130.28 698.33,141.73 698.97,131.41 699.62,124.65 700.27,112.64 700.92,107.38 701.57,104.57 702.21,99.69 702.86,98.94 703.51,99.31 704.16,107.01 704.81,119.96 705.45,124.65 706.10,132.53 706.75,136.66 707.40,134.97 708.05,128.78 708.70,132.72 709.34,132.53 709.99,132.91 710.64,128.59 711.29,122.40 711.94,126.15 712.58,130.09 713.23,124.84 713.88,132.91 714.53,135.35 715.18,137.23 715.82,130.66 716.47,133.28 717.12,138.35 717.77,134.22 718.42,136.66 719.07,129.72 719.71,131.22 720.36,141.54 721.01,134.41 721.66,138.91 722.31,136.29 722.95,134.04 723.60,133.10 724.25,132.16 724.90,131.78 725.55,125.21 726.19,114.14 726.84,104.38 727.49,90.12 728.14,104.94 728.79,101.94 729.44,114.70 730.08,120.33 730.73,126.15 731.38,124.46 732.03,130.09 732.68,142.11 733.32,137.79 733.97,134.97 734.62,130.47 735.27,128.59 735.92,134.04 736.56,124.65 737.21,131.41 737.86,129.53 738.51,128.03 739.16,125.21 739.81,131.03 740.45,138.91 741.10,135.91 741.75,134.04 742.40,132.16 743.05,134.60 743.69,143.79 744.34,137.60 744.99,143.61 745.64,138.16 746.29,136.29 746.93,130.66 747.58,134.41 748.23,137.23 748.88,134.22 749.53,134.22 750.18,123.71 750.82,117.14 751.47,115.45 752.12,107.38 752.77,115.08 753.42,109.82 754.06,114.89 754.71,115.27 755.36,127.65 756.01,134.60 756.66,134.97 757.30,135.54 757.95,132.72 758.60,136.29 759.25,145.11 759.90,136.10 760.55,136.66 761.19,134.22 761.84,132.16 762.49,126.15 763.14,128.78 763.79,134.79 764.43,134.79 765.08,134.22 765.73,131.22 766.38,142.29 767.03,145.67 767.67,143.42 768.32,146.23 768.97,143.98 769.62,140.79 770.27,136.48 770.92,139.29 771.56,141.35 772.21,139.10 772.86,139.10 773.51,128.22 774.16,130.66 774.80,124.65 775.45,106.07 776.10,109.45 776.75,110.01 777.40,112.83 778.04,107.57 778.69,117.14 779.34,129.53 779.99,130.47 780.64,135.16 781.29,132.91 781.93,139.67 782.58,147.36 783.23,136.66 783.88,144.17 784.53,140.42 785.17,134.97 785.82,129.34 786.47,129.34 787.12,134.22 787.77,133.66 788.41,136.85 789.06,131.03 789.71,137.23 790.36,143.23 791.01,138.73 791.66,146.05 792.30,144.17 792.95,142.29 793.60,138.35 794.25,138.91 794.90,142.29 795.54,141.54 796.19,141.35 796.84,135.16 797.49,140.04 798.14,132.16 798.78,123.52 799.43,116.02 800.08,109.64 800.73,103.82 801.38,101.94 802.03,112.83 802.67,118.83 803.32,125.78 803.97,128.03 804.62,128.97 805.27,134.97 805.91,139.48 806.56,141.73 807.21,142.86 807.86,144.17 808.51,137.79 809.15,131.60 809.80,134.79 810.45,135.35 811.10,133.66 811.75,134.04 812.39,127.84 813.04,134.79 813.69,140.42 814.34,135.91 814.99,145.30 815.64,142.29 816.28,140.42 816.93,139.67 817.58,141.35 818.23,147.17 818.88,138.73 819.52,142.48 820.17,130.84 820.82,138.16 821.47,143.23 822.12,136.48 822.76,133.10 823.41,120.90 824.06,113.20 824.71,100.63 825.36,105.13 826.01,110.39 826.65,113.39 827.30,116.39 827.95,119.58 828.60,128.59 829.25,138.35 829.89,140.60 830.54,145.67 831.19,144.17 831.84,140.42 832.49,134.79 833.13,136.66 833.78,136.48 834.43,134.79 835.08,131.41 835.73,129.34 836.38,132.16 837.02,135.54 837.67,142.67 838.32,141.17 838.97,141.54 839.62,140.60 840.26,135.54 840.91,140.60 841.56,142.48 842.21,139.48 842.86,145.11 843.50,132.91 844.15,137.04 844.80,138.91 845.45,141.54 846.10,140.60 846.75,139.10 847.39,131.78 848.04,120.71 848.69,115.45 849.34,111.89 849.99,105.13 850.63,102.69 851.28,103.82 851.93,115.83 852.58,125.78 853.23,138.16 853.87,138.73 854.52,141.92 855.17,146.42 855.82,138.54 856.47,142.11 857.12,141.17 857.76,139.67 858.41,131.78 859.06,128.22 859.71,131.22 860.36,135.54 861.00,140.60 861.65,138.73 862.30,142.67 862.95,137.23 863.60,137.23 864.24,141.35 864.89,142.86 865.54,144.17 866.19,140.98 866.84,137.98 867.49,142.48 868.13,141.92 868.78,144.36 869.43,141.17 870.08,141.17 870.73,136.66 871.37,128.97 872.02,128.59 872.67,119.77 873.32,112.08 873.97,109.64 874.61,100.63 875.26,108.70 875.91,116.96 876.56,124.46 877.21,133.10 877.86,136.85 878.50,140.23 879.15,162.56 879.80,146.80 880.45,145.11 881.10,143.98 881.74,140.42 882.39,132.16 883.04,137.60 883.69,144.17 884.34,136.10 884.98,137.23 885.63,137.04 886.28,138.16 886.93,133.85 887.58,142.11 888.23,140.98 888.87,141.92 889.52,140.04 890.17,140.79 890.82,149.80 891.47,143.79 892.11,144.92 892.76,143.79 893.41,144.73 894.06,140.42 894.71,134.79 895.35,135.91 896.00,134.22 896.65,125.96 897.30,114.14 897.95,106.63 898.60,103.82 899.24,108.70 899.89,114.89 900.54,118.08 901.19,128.03 901.84,130.66 902.48,131.60 903.13,144.55 903.78,143.42 904.43,146.42 905.08,141.54 905.72,137.98 906.37,140.79 907.02,139.48 907.67,135.54 908.32,136.29 908.97,135.16 909.61,135.35 910.26,134.41 910.91,140.42 911.56,142.11 912.21,141.92 912.85,142.29 913.50,137.98 914.15,153.18 914.80,144.73 915.45,144.73 916.09,144.36 916.74,144.73 917.39,143.61 918.04,135.72 918.69,139.67 919.34,143.79 919.98,142.86 920.63,136.10 921.28,130.28 921.93,124.65 922.58,116.02 923.22,106.82 923.87,108.70 924.52,112.08 925.17,113.20 925.82,115.64 926.46,128.40 927.11,135.35 927.76,137.60 928.41,139.67 929.06,140.42 929.71,150.36 930.35,147.74 931.00,142.48 931.65,141.54 932.30,140.98 932.95,134.97 933.59,134.04 934.24,137.04 934.89,140.23 935.54,137.79 936.19,135.16 936.83,135.54 937.48,143.98 938.13,145.11 938.78,146.42 939.43,144.17 940.08,146.99 940.72,137.79 941.37,138.35 942.02,147.17 942.67,139.85 943.32,135.35 943.96,132.91 944.61,136.48 945.26,142.11 945.91,135.16 946.56,126.90 947.20,123.90 947.85,114.14 948.50,103.44 949.15,102.88 949.80,110.95 950.45,112.64 951.09,119.21 951.74,119.96 952.39,129.34 953.04,141.54 953.69,139.48 954.33,146.99 954.98,145.67 955.63,139.85 956.28,136.48 956.93,136.85 957.57,138.35 958.22,137.04 958.87,137.23 959.52,133.66 960.17,135.16 960.82,140.98 961.46,141.54 962.11,149.80 962.76,152.05 963.41,151.11 964.06,144.17 964.70,147.74 965.35,147.92 966.00,138.35"/>
</svg>
